<svg width="344" height="165" viewBox="0 0 344 165" fill="none" xmlns="http://www.w3.org/2000/svg">
<rect x="0.5" y="24.5" width="343" height="140" rx="9.5" fill="white" stroke="#9E9E9E"/>
<path d="M199 24H334C339.523 24 344 28.4772 344 34V155C344 160.523 339.523 165 334 165H182L199 24Z" fill="#E61733"/>
<path d="M16.5971 95.119C15.8037 95.119 15.0449 95 14.3209 94.762C13.5968 94.514 13.0265 94.1966 12.61 93.8098L13.1604 92.6494C13.5572 92.9965 14.063 93.2841 14.6779 93.5123C15.2929 93.7404 15.9326 93.8544 16.5971 93.8544C17.2021 93.8544 17.6931 93.785 18.07 93.6462C18.4469 93.5073 18.7246 93.3189 18.9031 93.0808C19.0816 92.8329 19.1709 92.5551 19.1709 92.2477C19.1709 91.8906 19.0519 91.603 18.8138 91.3848C18.5857 91.1666 18.2832 90.993 17.9063 90.8641C17.5393 90.7252 17.1327 90.6062 16.6864 90.507C16.2401 90.4078 15.7888 90.2938 15.3325 90.1649C14.8862 90.026 14.4746 89.8524 14.0977 89.6441C13.7307 89.4359 13.4332 89.1581 13.2051 88.811C12.9769 88.454 12.8629 87.9977 12.8629 87.4423C12.8629 86.9067 13.0017 86.4157 13.2795 85.9694C13.5671 85.5132 14.0035 85.1512 14.5887 84.8834C15.1838 84.6057 15.9375 84.4668 16.85 84.4668C17.455 84.4668 18.0551 84.5462 18.6502 84.7049C19.2453 84.8635 19.761 85.0917 20.1974 85.3892L19.7065 86.5794C19.2602 86.2819 18.789 86.0686 18.2931 85.9397C17.7972 85.8008 17.3162 85.7314 16.85 85.7314C16.2649 85.7314 15.7838 85.8058 15.4069 85.9546C15.03 86.1033 14.7523 86.3017 14.5738 86.5496C14.4052 86.7976 14.3209 87.0753 14.3209 87.3828C14.3209 87.7498 14.4349 88.0423 14.6631 88.2605C14.9011 88.4787 15.2036 88.6523 15.5706 88.7813C15.9475 88.9102 16.3591 89.0292 16.8054 89.1383C17.2517 89.2375 17.698 89.3516 18.1444 89.4805C18.6006 89.6094 19.0122 89.778 19.3792 89.9863C19.7561 90.1946 20.0586 90.4723 20.2867 90.8195C20.5148 91.1666 20.6289 91.6129 20.6289 92.1584C20.6289 92.6841 20.4851 93.175 20.1974 93.6313C19.9098 94.0776 19.4635 94.4396 18.8585 94.7173C18.2634 94.9851 17.5096 95.119 16.5971 95.119ZM24.1151 95L21.1842 87.115H22.5381L25.1416 94.2561H24.5019L27.2096 87.115H28.4146L31.0628 94.2561H30.438L33.101 87.115H34.3805L31.4347 95H30.066L27.5815 88.4837H27.9981L25.4838 95H24.1151ZM35.8297 95V87.115H37.258V95H35.8297ZM36.5438 85.5975C36.2661 85.5975 36.0331 85.5082 35.8446 85.3297C35.6661 85.1512 35.5768 84.933 35.5768 84.6751C35.5768 84.4073 35.6661 84.1841 35.8446 84.0056C36.0331 83.8271 36.2661 83.7378 36.5438 83.7378C36.8216 83.7378 37.0497 83.8271 37.2282 84.0056C37.4167 84.1742 37.5109 84.3875 37.5109 84.6453C37.5109 84.9131 37.4216 85.1413 37.2431 85.3297C37.0646 85.5082 36.8315 85.5975 36.5438 85.5975ZM42.6926 95.0893C41.8992 95.0893 41.2842 94.876 40.8478 94.4495C40.4114 94.0231 40.1932 93.4131 40.1932 92.6196V85.3892H41.6215V92.5601C41.6215 92.9866 41.7256 93.3139 41.9339 93.542C42.1521 93.7701 42.4595 93.8842 42.8563 93.8842C43.3026 93.8842 43.6745 93.7602 43.9721 93.5123L44.4184 94.5388C44.2002 94.7272 43.9374 94.8661 43.6299 94.9554C43.3324 95.0446 43.0199 95.0893 42.6926 95.0893ZM38.8543 88.2903V87.115H43.8828V88.2903H38.8543ZM49.3203 95.0893C48.5169 95.0893 47.7978 94.9157 47.163 94.5686C46.5382 94.2214 46.0472 93.7453 45.6902 93.1403C45.3331 92.5353 45.1546 91.841 45.1546 91.0575C45.1546 90.274 45.3331 89.5797 45.6902 88.9747C46.0472 88.3696 46.5382 87.8985 47.163 87.5613C47.7978 87.2142 48.5169 87.0406 49.3203 87.0406C50.0344 87.0406 50.6691 87.1844 51.2246 87.472C51.7899 87.7498 52.2263 88.1663 52.5338 88.7217L51.4477 89.421C51.1899 89.0342 50.8725 88.7515 50.4956 88.573C50.1286 88.3845 49.7319 88.2903 49.3054 88.2903C48.7896 88.2903 48.3284 88.4044 47.9218 88.6325C47.5151 88.8606 47.1928 89.1829 46.9548 89.5995C46.7167 90.0062 46.5977 90.4922 46.5977 91.0575C46.5977 91.6228 46.7167 92.1138 46.9548 92.5304C47.1928 92.9469 47.5151 93.2693 47.9218 93.4974C48.3284 93.7255 48.7896 93.8396 49.3054 93.8396C49.7319 93.8396 50.1286 93.7503 50.4956 93.5718C50.8725 93.3833 51.1899 93.0957 51.4477 92.7089L52.5338 93.3932C52.2263 93.9387 51.7899 94.3603 51.2246 94.6578C50.6691 94.9454 50.0344 95.0893 49.3203 95.0893ZM58.4915 87.0406C59.1362 87.0406 59.7015 87.1646 60.1875 87.4125C60.6834 87.6605 61.0702 88.0374 61.3479 88.5432C61.6256 89.049 61.7645 89.6888 61.7645 90.4624V95H60.3363V90.626C60.3363 89.8623 60.1478 89.2871 59.7709 88.9003C59.404 88.5135 58.8832 88.3201 58.2088 88.3201C57.703 88.3201 57.2616 88.4192 56.8847 88.6176C56.5078 88.816 56.2152 89.1086 56.007 89.4954C55.8086 89.8822 55.7094 90.3632 55.7094 90.9385V95H54.2812V83.961H55.7094V89.2425L55.4267 88.6771C55.6846 88.1614 56.0813 87.7597 56.6169 87.472C57.1525 87.1844 57.7774 87.0406 58.4915 87.0406ZM71.7802 95.0893C70.9868 95.0893 70.2826 94.9157 69.6676 94.5686C69.0527 94.2214 68.5667 93.7453 68.2097 93.1403C67.8526 92.5254 67.6741 91.8311 67.6741 91.0575C67.6741 90.274 67.8526 89.5797 68.2097 88.9747C68.5667 88.3696 69.0527 87.8985 69.6676 87.5613C70.2826 87.2142 70.9868 87.0406 71.7802 87.0406C72.5638 87.0406 73.263 87.2142 73.8779 87.5613C74.5028 87.8985 74.9888 88.3696 75.3359 88.9747C75.693 89.5698 75.8715 90.264 75.8715 91.0575C75.8715 91.841 75.693 92.5353 75.3359 93.1403C74.9888 93.7453 74.5028 94.2214 73.8779 94.5686C73.263 94.9157 72.5638 95.0893 71.7802 95.0893ZM71.7802 93.8396C72.2861 93.8396 72.7373 93.7255 73.1341 93.4974C73.5407 93.2693 73.8581 92.9469 74.0862 92.5304C74.3143 92.1039 74.4284 91.6129 74.4284 91.0575C74.4284 90.4922 74.3143 90.0062 74.0862 89.5995C73.8581 89.1829 73.5407 88.8606 73.1341 88.6325C72.7373 88.4044 72.2861 88.2903 71.7802 88.2903C71.2744 88.2903 70.8231 88.4044 70.4264 88.6325C70.0297 88.8606 69.7123 89.1829 69.4742 89.5995C69.2362 90.0062 69.1172 90.4922 69.1172 91.0575C69.1172 91.6129 69.2362 92.1039 69.4742 92.5304C69.7123 92.9469 70.0297 93.2693 70.4264 93.4974C70.8231 93.7255 71.2744 93.8396 71.7802 93.8396ZM82.057 87.0406C82.7017 87.0406 83.267 87.1646 83.753 87.4125C84.249 87.6605 84.6358 88.0374 84.9135 88.5432C85.1912 89.049 85.33 89.6888 85.33 90.4624V95H83.9018V90.626C83.9018 89.8623 83.7134 89.2871 83.3365 88.9003C82.9695 88.5135 82.4488 88.3201 81.7743 88.3201C81.2685 88.3201 80.8272 88.4192 80.4503 88.6176C80.0734 88.816 79.7808 89.1086 79.5725 89.4954C79.3741 89.8822 79.2749 90.3632 79.2749 90.9385V95H77.8467V87.115H79.2154V89.2425L78.9923 88.6771C79.2501 88.1614 79.6469 87.7597 80.1825 87.472C80.7181 87.1844 81.3429 87.0406 82.057 87.0406ZM94.6763 95.0893C93.8828 95.0893 93.2679 94.876 92.8315 94.4495C92.3951 94.0231 92.1769 93.4131 92.1769 92.6196V85.3892H93.6051V92.5601C93.6051 92.9866 93.7093 93.3139 93.9175 93.542C94.1357 93.7701 94.4432 93.8842 94.8399 93.8842C95.2863 93.8842 95.6582 93.7602 95.9557 93.5123L96.4021 94.5388C96.1839 94.7272 95.921 94.8661 95.6136 94.9554C95.316 95.0446 95.0036 95.0893 94.6763 95.0893ZM90.8379 88.2903V87.115H95.8665V88.2903H90.8379ZM102.339 87.0406C102.984 87.0406 103.549 87.1646 104.035 87.4125C104.531 87.6605 104.918 88.0374 105.196 88.5432C105.473 89.049 105.612 89.6888 105.612 90.4624V95H104.184V90.626C104.184 89.8623 103.995 89.2871 103.619 88.9003C103.252 88.5135 102.731 88.3201 102.056 88.3201C101.551 88.3201 101.109 88.4192 100.732 88.6176C100.355 88.816 100.063 89.1086 99.8546 89.4954C99.6562 89.8822 99.557 90.3632 99.557 90.9385V95H98.1288V83.961H99.557V89.2425L99.2743 88.6771C99.5322 88.1614 99.9289 87.7597 100.465 87.472C101 87.1844 101.625 87.0406 102.339 87.0406ZM111.766 95.0893C110.923 95.0893 110.179 94.9157 109.535 94.5686C108.9 94.2214 108.404 93.7453 108.047 93.1403C107.7 92.5353 107.526 91.841 107.526 91.0575C107.526 90.274 107.695 89.5797 108.032 88.9747C108.379 88.3696 108.85 87.8985 109.445 87.5613C110.05 87.2142 110.73 87.0406 111.484 87.0406C112.247 87.0406 112.922 87.2092 113.507 87.5464C114.092 87.8837 114.548 88.3597 114.876 88.9747C115.213 89.5797 115.382 90.2888 115.382 91.1021C115.382 91.1616 115.377 91.2311 115.367 91.3104C115.367 91.3898 115.362 91.4641 115.352 91.5336H108.642V90.507H114.608L114.028 90.8641C114.038 90.3583 113.933 89.907 113.715 89.5102C113.497 89.1135 113.195 88.806 112.808 88.5878C112.431 88.3597 111.99 88.2457 111.484 88.2457C110.988 88.2457 110.546 88.3597 110.16 88.5878C109.773 88.806 109.47 89.1185 109.252 89.5251C109.034 89.9219 108.925 90.3781 108.925 90.8938V91.1319C108.925 91.6575 109.044 92.1287 109.282 92.5452C109.53 92.9519 109.872 93.2693 110.308 93.4974C110.745 93.7255 111.246 93.8396 111.811 93.8396C112.277 93.8396 112.699 93.7602 113.076 93.6015C113.462 93.4428 113.8 93.2048 114.087 92.8874L114.876 93.8098C114.519 94.2264 114.072 94.5438 113.537 94.762C113.011 94.9802 112.421 95.0893 111.766 95.0893ZM14.5887 101.961L13.8448 104.981L13.6663 104.118C13.9539 104.118 14.1919 104.207 14.3804 104.386C14.5688 104.565 14.6631 104.803 14.6631 105.1C14.6631 105.398 14.5688 105.641 14.3804 105.829C14.1919 106.018 13.9589 106.112 13.6811 106.112C13.3935 106.112 13.1555 106.018 12.967 105.829C12.7786 105.631 12.6844 105.388 12.6844 105.1C12.6844 105.001 12.6893 104.907 12.6992 104.817C12.7191 104.728 12.7488 104.624 12.7885 104.505C12.8282 104.376 12.8827 104.222 12.9522 104.044L13.6514 101.961H14.5887ZM14.8618 113L19.5779 102.586H21.0508L25.7818 113H24.2197L20.0094 103.419H20.6045L16.3942 113H14.8618ZM16.8703 110.396L17.2719 109.206H23.1336L23.5651 110.396H16.8703ZM27.127 113V101.961H28.5553V113H27.127ZM31.2823 113V101.961H32.7105V113H31.2823ZM38.8146 113.089C38.0212 113.089 37.317 112.916 36.702 112.569C36.0871 112.221 35.6011 111.745 35.2441 111.14C34.887 110.525 34.7085 109.831 34.7085 109.057C34.7085 108.274 34.887 107.58 35.2441 106.975C35.6011 106.37 36.0871 105.899 36.702 105.561C37.317 105.214 38.0212 105.041 38.8146 105.041C39.5982 105.041 40.2974 105.214 40.9123 105.561C41.5372 105.899 42.0232 106.37 42.3703 106.975C42.7274 107.57 42.9059 108.264 42.9059 109.057C42.9059 109.841 42.7274 110.535 42.3703 111.14C42.0232 111.745 41.5372 112.221 40.9123 112.569C40.2974 112.916 39.5982 113.089 38.8146 113.089ZM38.8146 111.84C39.3205 111.84 39.7717 111.726 40.1685 111.497C40.5751 111.269 40.8925 110.947 41.1206 110.53C41.3487 110.104 41.4628 109.613 41.4628 109.057C41.4628 108.492 41.3487 108.006 41.1206 107.6C40.8925 107.183 40.5751 106.861 40.1685 106.632C39.7717 106.404 39.3205 106.29 38.8146 106.29C38.3088 106.29 37.8575 106.404 37.4608 106.632C37.0641 106.861 36.7467 107.183 36.5086 107.6C36.2706 108.006 36.1516 108.492 36.1516 109.057C36.1516 109.613 36.2706 110.104 36.5086 110.53C36.7467 110.947 37.0641 111.269 37.4608 111.497C37.8575 111.726 38.3088 111.84 38.8146 111.84ZM46.3294 113L43.3986 105.115H44.7524L47.356 112.256H46.7163L49.4239 105.115H50.629L53.2772 112.256H52.6523L55.3154 105.115H56.5948L53.6491 113H52.2804L49.7959 106.484H50.2124L47.6982 113H46.3294ZM62.2478 113V104.416C62.2478 103.642 62.4709 103.027 62.9173 102.571C63.3735 102.105 64.0182 101.872 64.8513 101.872C65.1588 101.872 65.4514 101.911 65.7291 101.991C66.0167 102.06 66.2597 102.174 66.4581 102.333L66.0266 103.419C65.8779 103.3 65.7093 103.211 65.5208 103.151C65.3324 103.082 65.134 103.047 64.9257 103.047C64.5091 103.047 64.1918 103.166 63.9736 103.404C63.7554 103.632 63.6463 103.974 63.6463 104.431V105.487L63.676 106.142V113H62.2478ZM60.9088 106.29V105.115H65.9374V106.29H60.9088ZM70.5453 113.089C69.7518 113.089 69.0476 112.916 68.4327 112.569C67.8178 112.221 67.3318 111.745 66.9747 111.14C66.6177 110.525 66.4391 109.831 66.4391 109.057C66.4391 108.274 66.6177 107.58 66.9747 106.975C67.3318 106.37 67.8178 105.899 68.4327 105.561C69.0476 105.214 69.7518 105.041 70.5453 105.041C71.3288 105.041 72.0281 105.214 72.643 105.561C73.2679 105.899 73.7538 106.37 74.101 106.975C74.458 107.57 74.6366 108.264 74.6366 109.057C74.6366 109.841 74.458 110.535 74.101 111.14C73.7538 111.745 73.2679 112.221 72.643 112.569C72.0281 112.916 71.3288 113.089 70.5453 113.089ZM70.5453 111.84C71.0511 111.84 71.5024 111.726 71.8991 111.497C72.3058 111.269 72.6232 110.947 72.8513 110.53C73.0794 110.104 73.1935 109.613 73.1935 109.057C73.1935 108.492 73.0794 108.006 72.8513 107.6C72.6232 107.183 72.3058 106.861 71.8991 106.632C71.5024 106.404 71.0511 106.29 70.5453 106.29C70.0395 106.29 69.5882 106.404 69.1915 106.632C68.7947 106.861 68.4773 107.183 68.2393 107.6C68.0013 108.006 67.8822 108.492 67.8822 109.057C67.8822 109.613 68.0013 110.104 68.2393 110.53C68.4773 110.947 68.7947 111.269 69.1915 111.497C69.5882 111.726 70.0395 111.84 70.5453 111.84ZM76.6118 113V105.115H77.9805V107.257L77.8466 106.722C78.0648 106.176 78.4318 105.76 78.9475 105.472C79.4633 105.184 80.098 105.041 80.8518 105.041V106.424C80.7923 106.414 80.7328 106.409 80.6733 106.409C80.6237 106.409 80.5741 106.409 80.5245 106.409C79.7608 106.409 79.1558 106.637 78.7095 107.094C78.2632 107.55 78.04 108.209 78.04 109.072V113H76.6118ZM92.4758 105.041C93.1106 105.041 93.671 105.165 94.157 105.413C94.643 105.66 95.0199 106.037 95.2877 106.543C95.5654 107.049 95.7042 107.689 95.7042 108.462V113H94.276V108.626C94.276 107.862 94.0975 107.287 93.7404 106.9C93.3834 106.513 92.8825 106.32 92.2378 106.32C91.7617 106.32 91.3452 106.419 90.9881 106.618C90.631 106.816 90.3533 107.109 90.155 107.495C89.9665 107.882 89.8723 108.363 89.8723 108.938V113H88.4441V108.626C88.4441 107.862 88.2655 107.287 87.9085 106.9C87.5613 106.513 87.0605 106.32 86.4059 106.32C85.9397 106.32 85.5281 106.419 85.171 106.618C84.814 106.816 84.5363 107.109 84.3379 107.495C84.1395 107.882 84.0404 108.363 84.0404 108.938V113H82.6121V105.115H83.9808V107.213L83.7577 106.677C84.0056 106.161 84.3875 105.76 84.9032 105.472C85.419 105.184 86.019 105.041 86.7034 105.041C87.4572 105.041 88.1068 105.229 88.6523 105.606C89.1978 105.973 89.5549 106.533 89.7235 107.287L89.1433 107.049C89.3813 106.444 89.7979 105.958 90.393 105.591C90.9881 105.224 91.6824 105.041 92.4758 105.041ZM105.035 113.089C104.242 113.089 103.627 112.876 103.19 112.45C102.754 112.023 102.536 111.413 102.536 110.62V103.389H103.964V110.56C103.964 110.987 104.068 111.314 104.277 111.542C104.495 111.77 104.802 111.884 105.199 111.884C105.645 111.884 106.017 111.76 106.315 111.512L106.761 112.539C106.543 112.727 106.28 112.866 105.973 112.955C105.675 113.045 105.363 113.089 105.035 113.089ZM101.197 106.29V105.115H106.225V106.29H101.197ZM112.698 105.041C113.343 105.041 113.908 105.165 114.394 105.413C114.89 105.66 115.277 106.037 115.554 106.543C115.832 107.049 115.971 107.689 115.971 108.462V113H114.543V108.626C114.543 107.862 114.354 107.287 113.977 106.9C113.611 106.513 113.09 106.32 112.415 106.32C111.91 106.32 111.468 106.419 111.091 106.618C110.714 106.816 110.422 107.109 110.214 107.495C110.015 107.882 109.916 108.363 109.916 108.938V113H108.488V101.961H109.916V107.242L109.633 106.677C109.891 106.161 110.288 105.76 110.823 105.472C111.359 105.184 111.984 105.041 112.698 105.041ZM118.614 113V105.115H120.042V113H118.614ZM119.328 103.597C119.051 103.597 118.818 103.508 118.629 103.33C118.451 103.151 118.361 102.933 118.361 102.675C118.361 102.407 118.451 102.184 118.629 102.006C118.818 101.827 119.051 101.738 119.328 101.738C119.606 101.738 119.834 101.827 120.013 102.006C120.201 102.174 120.295 102.387 120.295 102.645C120.295 102.913 120.206 103.141 120.028 103.33C119.849 103.508 119.616 103.597 119.328 103.597ZM125.031 113.089C124.376 113.089 123.751 113 123.156 112.821C122.571 112.643 122.11 112.425 121.773 112.167L122.368 111.036C122.705 111.264 123.122 111.458 123.617 111.616C124.113 111.775 124.619 111.854 125.135 111.854C125.799 111.854 126.276 111.76 126.563 111.572C126.861 111.383 127.009 111.12 127.009 110.783C127.009 110.535 126.92 110.342 126.742 110.203C126.563 110.064 126.325 109.96 126.028 109.891C125.74 109.821 125.418 109.762 125.061 109.712C124.703 109.653 124.346 109.583 123.989 109.504C123.632 109.415 123.305 109.296 123.007 109.147C122.71 108.988 122.472 108.775 122.293 108.507C122.115 108.229 122.026 107.862 122.026 107.406C122.026 106.93 122.159 106.513 122.427 106.156C122.695 105.799 123.072 105.527 123.558 105.338C124.054 105.14 124.639 105.041 125.313 105.041C125.829 105.041 126.35 105.105 126.876 105.234C127.411 105.353 127.848 105.527 128.185 105.755L127.575 106.885C127.218 106.647 126.846 106.484 126.459 106.394C126.072 106.305 125.685 106.261 125.299 106.261C124.674 106.261 124.208 106.365 123.9 106.573C123.593 106.771 123.439 107.029 123.439 107.347C123.439 107.614 123.528 107.823 123.707 107.971C123.895 108.11 124.133 108.219 124.421 108.299C124.718 108.378 125.046 108.448 125.403 108.507C125.76 108.557 126.117 108.626 126.474 108.715C126.831 108.795 127.153 108.909 127.441 109.057C127.738 109.206 127.977 109.415 128.155 109.682C128.343 109.95 128.438 110.307 128.438 110.754C128.438 111.23 128.299 111.641 128.021 111.988C127.743 112.335 127.352 112.608 126.846 112.807C126.34 112.995 125.735 113.089 125.031 113.089ZM136.479 113.089C135.825 113.089 135.2 113 134.605 112.821C134.02 112.643 133.558 112.425 133.221 112.167L133.816 111.036C134.154 111.264 134.57 111.458 135.066 111.616C135.562 111.775 136.068 111.854 136.584 111.854C137.248 111.854 137.724 111.76 138.012 111.572C138.309 111.383 138.458 111.12 138.458 110.783C138.458 110.535 138.369 110.342 138.19 110.203C138.012 110.064 137.774 109.96 137.476 109.891C137.189 109.821 136.866 109.762 136.509 109.712C136.152 109.653 135.795 109.583 135.438 109.504C135.081 109.415 134.754 109.296 134.456 109.147C134.159 108.988 133.921 108.775 133.742 108.507C133.563 108.229 133.474 107.862 133.474 107.406C133.474 106.93 133.608 106.513 133.876 106.156C134.144 105.799 134.521 105.527 135.007 105.338C135.502 105.14 136.088 105.041 136.762 105.041C137.278 105.041 137.799 105.105 138.324 105.234C138.86 105.353 139.296 105.527 139.633 105.755L139.023 106.885C138.666 106.647 138.294 106.484 137.908 106.394C137.521 106.305 137.134 106.261 136.747 106.261C136.122 106.261 135.656 106.365 135.349 106.573C135.041 106.771 134.888 107.029 134.888 107.347C134.888 107.614 134.977 107.823 135.155 107.971C135.344 108.11 135.582 108.219 135.869 108.299C136.167 108.378 136.494 108.448 136.851 108.507C137.208 108.557 137.565 108.626 137.923 108.715C138.28 108.795 138.602 108.909 138.89 109.057C139.187 109.206 139.425 109.415 139.604 109.682C139.792 109.95 139.886 110.307 139.886 110.754C139.886 111.23 139.747 111.641 139.47 111.988C139.192 112.335 138.8 112.608 138.294 112.807C137.789 112.995 137.184 113.089 136.479 113.089ZM145.048 113.089C144.255 113.089 143.551 112.916 142.936 112.569C142.321 112.221 141.835 111.745 141.478 111.14C141.121 110.525 140.942 109.831 140.942 109.057C140.942 108.274 141.121 107.58 141.478 106.975C141.835 106.37 142.321 105.899 142.936 105.561C143.551 105.214 144.255 105.041 145.048 105.041C145.832 105.041 146.531 105.214 147.146 105.561C147.771 105.899 148.257 106.37 148.604 106.975C148.961 107.57 149.14 108.264 149.14 109.057C149.14 109.841 148.961 110.535 148.604 111.14C148.257 111.745 147.771 112.221 147.146 112.569C146.531 112.916 145.832 113.089 145.048 113.089ZM145.048 111.84C145.554 111.84 146.006 111.726 146.402 111.497C146.809 111.269 147.126 110.947 147.354 110.53C147.583 110.104 147.697 109.613 147.697 109.057C147.697 108.492 147.583 108.006 147.354 107.6C147.126 107.183 146.809 106.861 146.402 106.632C146.006 106.404 145.554 106.29 145.048 106.29C144.543 106.29 144.091 106.404 143.695 106.632C143.298 106.861 142.98 107.183 142.742 107.6C142.504 108.006 142.385 108.492 142.385 109.057C142.385 109.613 142.504 110.104 142.742 110.53C142.98 110.947 143.298 111.269 143.695 111.497C144.091 111.726 144.543 111.84 145.048 111.84ZM154.433 113.089C153.758 113.089 153.163 112.965 152.647 112.717C152.141 112.469 151.745 112.092 151.457 111.587C151.179 111.071 151.041 110.426 151.041 109.653V105.115H152.469V109.489C152.469 110.263 152.652 110.843 153.019 111.23C153.396 111.616 153.922 111.81 154.596 111.81C155.092 111.81 155.524 111.711 155.891 111.512C156.258 111.304 156.54 111.006 156.739 110.62C156.937 110.223 157.036 109.747 157.036 109.191V105.115H158.464V113H157.111V110.873L157.334 111.438C157.076 111.964 156.689 112.37 156.173 112.658C155.657 112.945 155.077 113.089 154.433 113.089ZM161.183 113V105.115H162.552V107.257L162.418 106.722C162.636 106.176 163.003 105.76 163.519 105.472C164.035 105.184 164.67 105.041 165.423 105.041V106.424C165.364 106.414 165.304 106.409 165.245 106.409C165.195 106.409 165.146 106.409 165.096 106.409C164.332 106.409 163.727 106.637 163.281 107.094C162.835 107.55 162.612 108.209 162.612 109.072V113H161.183ZM170.548 113.089C169.744 113.089 169.025 112.916 168.39 112.569C167.766 112.221 167.275 111.745 166.918 111.14C166.561 110.535 166.382 109.841 166.382 109.057C166.382 108.274 166.561 107.58 166.918 106.975C167.275 106.37 167.766 105.899 168.39 105.561C169.025 105.214 169.744 105.041 170.548 105.041C171.262 105.041 171.897 105.184 172.452 105.472C173.017 105.75 173.454 106.166 173.761 106.722L172.675 107.421C172.417 107.034 172.1 106.751 171.723 106.573C171.356 106.385 170.959 106.29 170.533 106.29C170.017 106.29 169.556 106.404 169.149 106.632C168.743 106.861 168.42 107.183 168.182 107.6C167.944 108.006 167.825 108.492 167.825 109.057C167.825 109.623 167.944 110.114 168.182 110.53C168.42 110.947 168.743 111.269 169.149 111.497C169.556 111.726 170.017 111.84 170.533 111.84C170.959 111.84 171.356 111.75 171.723 111.572C172.1 111.383 172.417 111.096 172.675 110.709L173.761 111.393C173.454 111.939 173.017 112.36 172.452 112.658C171.897 112.945 171.262 113.089 170.548 113.089ZM179.005 113.089C178.162 113.089 177.418 112.916 176.774 112.569C176.139 112.221 175.643 111.745 175.286 111.14C174.939 110.535 174.765 109.841 174.765 109.057C174.765 108.274 174.934 107.58 175.271 106.975C175.618 106.37 176.089 105.899 176.684 105.561C177.289 105.214 177.969 105.041 178.722 105.041C179.486 105.041 180.161 105.209 180.746 105.546C181.331 105.884 181.787 106.36 182.115 106.975C182.452 107.58 182.62 108.289 182.62 109.102C182.62 109.162 182.615 109.231 182.605 109.31C182.605 109.39 182.601 109.464 182.591 109.534H175.881V108.507H181.847L181.266 108.864C181.276 108.358 181.172 107.907 180.954 107.51C180.736 107.114 180.433 106.806 180.047 106.588C179.67 106.36 179.228 106.246 178.722 106.246C178.227 106.246 177.785 106.36 177.398 106.588C177.012 106.806 176.709 107.118 176.491 107.525C176.273 107.922 176.164 108.378 176.164 108.894V109.132C176.164 109.658 176.283 110.129 176.521 110.545C176.769 110.952 177.111 111.269 177.547 111.497C177.984 111.726 178.484 111.84 179.05 111.84C179.516 111.84 179.937 111.76 180.314 111.602C180.701 111.443 181.038 111.205 181.326 110.887L182.115 111.81C181.757 112.226 181.311 112.544 180.776 112.762C180.25 112.98 179.66 113.089 179.005 113.089ZM184.024 106.023L184.768 103.002L184.961 103.865C184.673 103.865 184.43 103.776 184.232 103.597C184.044 103.419 183.949 103.181 183.949 102.883C183.949 102.576 184.044 102.333 184.232 102.154C184.43 101.966 184.668 101.872 184.946 101.872C185.234 101.872 185.467 101.971 185.645 102.169C185.824 102.358 185.913 102.596 185.913 102.883C185.913 102.973 185.908 103.067 185.898 103.166C185.888 103.255 185.864 103.359 185.824 103.478C185.794 103.597 185.745 103.751 185.675 103.94L184.961 106.023H184.024ZM16.731 131.089C15.9375 131.089 15.2334 130.916 14.6184 130.569C14.0035 130.221 13.5175 129.745 13.1604 129.14C12.8034 128.525 12.6249 127.831 12.6249 127.057C12.6249 126.274 12.8034 125.58 13.1604 124.975C13.5175 124.37 14.0035 123.899 14.6184 123.561C15.2334 123.214 15.9375 123.041 16.731 123.041C17.5146 123.041 18.2138 123.214 18.8287 123.561C19.4536 123.899 19.9396 124.37 20.2867 124.975C20.6438 125.57 20.8223 126.264 20.8223 127.057C20.8223 127.841 20.6438 128.535 20.2867 129.14C19.9396 129.745 19.4536 130.221 18.8287 130.569C18.2138 130.916 17.5146 131.089 16.731 131.089ZM16.731 129.84C17.2368 129.84 17.6881 129.726 18.0848 129.497C18.4915 129.269 18.8089 128.947 19.037 128.53C19.2651 128.104 19.3792 127.613 19.3792 127.057C19.3792 126.492 19.2651 126.006 19.037 125.6C18.8089 125.183 18.4915 124.861 18.0848 124.632C17.6881 124.404 17.2368 124.29 16.731 124.29C16.2252 124.29 15.7739 124.404 15.3772 124.632C14.9804 124.861 14.6631 125.183 14.425 125.6C14.187 126.006 14.068 126.492 14.068 127.057C14.068 127.613 14.187 128.104 14.425 128.53C14.6631 128.947 14.9804 129.269 15.3772 129.497C15.7739 129.726 16.2252 129.84 16.731 129.84ZM26.978 131.089C26.3234 131.089 25.7234 130.94 25.1779 130.643C24.6423 130.335 24.2108 129.884 23.8835 129.289C23.5662 128.694 23.4075 127.95 23.4075 127.057C23.4075 126.165 23.5612 125.421 23.8687 124.826C24.186 124.231 24.6125 123.784 25.1481 123.487C25.6936 123.189 26.3036 123.041 26.978 123.041C27.7517 123.041 28.436 123.209 29.0311 123.546C29.6262 123.884 30.0973 124.355 30.4445 124.96C30.7916 125.555 30.9652 126.254 30.9652 127.057C30.9652 127.861 30.7916 128.565 30.4445 129.17C30.0973 129.775 29.6262 130.246 29.0311 130.583C28.436 130.921 27.7517 131.089 26.978 131.089ZM22.7975 133.886V123.115H24.1662V125.242L24.0769 127.072L24.2257 128.902V133.886H22.7975ZM26.859 129.84C27.3649 129.84 27.8161 129.726 28.2129 129.497C28.6195 129.269 28.9369 128.947 29.165 128.53C29.4031 128.104 29.5221 127.613 29.5221 127.057C29.5221 126.492 29.4031 126.006 29.165 125.6C28.9369 125.183 28.6195 124.861 28.2129 124.632C27.8161 124.404 27.3649 124.29 26.859 124.29C26.3631 124.29 25.9118 124.404 25.5052 124.632C25.1084 124.861 24.7911 125.183 24.553 125.6C24.3249 126.006 24.2108 126.492 24.2108 127.057C24.2108 127.613 24.3249 128.104 24.553 128.53C24.7911 128.947 25.1084 129.269 25.5052 129.497C25.9118 129.726 26.3631 129.84 26.859 129.84ZM35.6462 131.089C34.8527 131.089 34.2378 130.876 33.8014 130.45C33.365 130.023 33.1468 129.413 33.1468 128.62V121.389H34.575V128.56C34.575 128.987 34.6792 129.314 34.8875 129.542C35.1057 129.77 35.4131 129.884 35.8099 129.884C36.2562 129.884 36.6281 129.76 36.9257 129.512L37.372 130.539C37.1538 130.727 36.8909 130.866 36.5835 130.955C36.2859 131.045 35.9735 131.089 35.6462 131.089ZM31.8078 124.29V123.115H36.8364V124.29H31.8078ZM39.0987 131V123.115H40.5269V131H39.0987ZM39.8128 121.597C39.5351 121.597 39.302 121.508 39.1136 121.33C38.935 121.151 38.8458 120.933 38.8458 120.675C38.8458 120.407 38.935 120.184 39.1136 120.006C39.302 119.827 39.5351 119.738 39.8128 119.738C40.0905 119.738 40.3186 119.827 40.4972 120.006C40.6856 120.174 40.7798 120.387 40.7798 120.645C40.7798 120.913 40.6906 121.141 40.512 121.33C40.3335 121.508 40.1004 121.597 39.8128 121.597ZM46.6311 131.089C45.8376 131.089 45.1334 130.916 44.5185 130.569C43.9035 130.221 43.4175 129.745 43.0605 129.14C42.7034 128.525 42.5249 127.831 42.5249 127.057C42.5249 126.274 42.7034 125.58 43.0605 124.975C43.4175 124.37 43.9035 123.899 44.5185 123.561C45.1334 123.214 45.8376 123.041 46.6311 123.041C47.4146 123.041 48.1138 123.214 48.7288 123.561C49.3536 123.899 49.8396 124.37 50.1868 124.975C50.5438 125.57 50.7223 126.264 50.7223 127.057C50.7223 127.841 50.5438 128.535 50.1868 129.14C49.8396 129.745 49.3536 130.221 48.7288 130.569C48.1138 130.916 47.4146 131.089 46.6311 131.089ZM46.6311 129.84C47.1369 129.84 47.5882 129.726 47.9849 129.497C48.3916 129.269 48.7089 128.947 48.9371 128.53C49.1652 128.104 49.2792 127.613 49.2792 127.057C49.2792 126.492 49.1652 126.006 48.9371 125.6C48.7089 125.183 48.3916 124.861 47.9849 124.632C47.5882 124.404 47.1369 124.29 46.6311 124.29C46.1252 124.29 45.6739 124.404 45.2772 124.632C44.8805 124.861 44.5631 125.183 44.3251 125.6C44.087 126.006 43.968 126.492 43.968 127.057C43.968 127.613 44.087 128.104 44.3251 128.53C44.5631 128.947 44.8805 129.269 45.2772 129.497C45.6739 129.726 46.1252 129.84 46.6311 129.84ZM56.9078 123.041C57.5525 123.041 58.1179 123.165 58.6039 123.413C59.0998 123.66 59.4866 124.037 59.7643 124.543C60.042 125.049 60.1809 125.689 60.1809 126.462V131H58.7526V126.626C58.7526 125.862 58.5642 125.287 58.1873 124.9C57.8203 124.513 57.2996 124.32 56.6252 124.32C56.1193 124.32 55.678 124.419 55.3011 124.618C54.9242 124.816 54.6316 125.109 54.4233 125.495C54.225 125.882 54.1258 126.363 54.1258 126.938V131H52.6975V123.115H54.0663V125.242L53.8431 124.677C54.101 124.161 54.4977 123.76 55.0333 123.472C55.5689 123.184 56.1937 123.041 56.9078 123.041ZM66.8194 131V123.115H68.2477V131H66.8194ZM67.5336 121.597C67.2558 121.597 67.0228 121.508 66.8343 121.33C66.6558 121.151 66.5665 120.933 66.5665 120.675C66.5665 120.407 66.6558 120.184 66.8343 120.006C67.0228 119.827 67.2558 119.738 67.5336 119.738C67.8113 119.738 68.0394 119.827 68.2179 120.006C68.4064 120.174 68.5006 120.387 68.5006 120.645C68.5006 120.913 68.4113 121.141 68.2328 121.33C68.0543 121.508 67.8212 121.597 67.5336 121.597ZM75.1849 123.041C75.8296 123.041 76.395 123.165 76.881 123.413C77.3769 123.66 77.7637 124.037 78.0414 124.543C78.3191 125.049 78.458 125.689 78.458 126.462V131H77.0297V126.626C77.0297 125.862 76.8413 125.287 76.4644 124.9C76.0974 124.513 75.5767 124.32 74.9023 124.32C74.3964 124.32 73.9551 124.419 73.5782 124.618C73.2013 124.816 72.9087 125.109 72.7004 125.495C72.5021 125.882 72.4029 126.363 72.4029 126.938V131H70.9746V123.115H72.3434V125.242L72.1202 124.677C72.3781 124.161 72.7748 123.76 73.3104 123.472C73.846 123.184 74.4708 123.041 75.1849 123.041ZM87.3579 131.089C86.7033 131.089 86.0784 131 85.4833 130.821C84.8982 130.643 84.437 130.425 84.0997 130.167L84.6948 129.036C85.0321 129.264 85.4486 129.458 85.9445 129.616C86.4405 129.775 86.9463 129.854 87.462 129.854C88.1266 129.854 88.6026 129.76 88.8903 129.572C89.1878 129.383 89.3366 129.12 89.3366 128.783C89.3366 128.535 89.2473 128.342 89.0688 128.203C88.8903 128.064 88.6522 127.96 88.3547 127.891C88.0671 127.821 87.7447 127.762 87.3877 127.712C87.0306 127.653 86.6735 127.583 86.3165 127.504C85.9594 127.415 85.6321 127.296 85.3346 127.147C85.037 126.988 84.799 126.775 84.6205 126.507C84.4419 126.229 84.3527 125.862 84.3527 125.406C84.3527 124.93 84.4866 124.513 84.7544 124.156C85.0221 123.799 85.399 123.527 85.885 123.338C86.3809 123.14 86.9661 123.041 87.6406 123.041C88.1563 123.041 88.677 123.105 89.2027 123.234C89.7383 123.353 90.1747 123.527 90.5119 123.755L89.9019 124.885C89.5449 124.647 89.1729 124.484 88.7861 124.394C88.3993 124.305 88.0125 124.261 87.6257 124.261C87.0008 124.261 86.5347 124.365 86.2272 124.573C85.9197 124.771 85.766 125.029 85.766 125.347C85.766 125.614 85.8553 125.823 86.0338 125.971C86.2223 126.11 86.4603 126.219 86.7479 126.299C87.0455 126.378 87.3728 126.448 87.7298 126.507C88.0869 126.557 88.4439 126.626 88.801 126.715C89.1581 126.795 89.4804 126.909 89.768 127.057C90.0656 127.206 90.3036 127.415 90.4821 127.682C90.6706 127.95 90.7648 128.307 90.7648 128.754C90.7648 129.23 90.626 129.641 90.3482 129.988C90.0705 130.335 89.6788 130.608 89.1729 130.807C88.6671 130.995 88.0621 131.089 87.3579 131.089ZM96.0608 131.089C95.2178 131.089 94.4739 130.916 93.8292 130.569C93.1944 130.221 92.6985 129.745 92.3415 129.14C91.9943 128.535 91.8208 127.841 91.8208 127.057C91.8208 126.274 91.9894 125.58 92.3266 124.975C92.6737 124.37 93.1449 123.899 93.7399 123.561C94.345 123.214 95.0244 123.041 95.7781 123.041C96.5419 123.041 97.2163 123.209 97.8015 123.546C98.3867 123.884 98.8429 124.36 99.1702 124.975C99.5074 125.58 99.676 126.289 99.676 127.102C99.676 127.162 99.6711 127.231 99.6611 127.31C99.6611 127.39 99.6562 127.464 99.6463 127.534H92.9366V126.507H98.9024L98.3222 126.864C98.3321 126.358 98.228 125.907 98.0098 125.51C97.7916 125.114 97.489 124.806 97.1022 124.588C96.7253 124.36 96.284 124.246 95.7781 124.246C95.2822 124.246 94.8409 124.36 94.4541 124.588C94.0673 124.806 93.7647 125.118 93.5465 125.525C93.3283 125.922 93.2192 126.378 93.2192 126.894V127.132C93.2192 127.658 93.3383 128.129 93.5763 128.545C93.8243 128.952 94.1664 129.269 94.6028 129.497C95.0392 129.726 95.5401 129.84 96.1055 129.84C96.5716 129.84 96.9931 129.76 97.37 129.602C97.7568 129.443 98.0941 129.205 98.3817 128.887L99.1702 129.81C98.8131 130.226 98.3668 130.544 97.8312 130.762C97.3056 130.98 96.7154 131.089 96.0608 131.089ZM104.367 131.089C103.573 131.089 102.959 130.876 102.522 130.45C102.086 130.023 101.868 129.413 101.868 128.62V121.389H103.296V128.56C103.296 128.987 103.4 129.314 103.608 129.542C103.826 129.77 104.134 129.884 104.531 129.884C104.977 129.884 105.349 129.76 105.646 129.512L106.093 130.539C105.875 130.727 105.612 130.866 105.304 130.955C105.007 131.045 104.694 131.089 104.367 131.089ZM100.529 124.29V123.115H105.557V124.29H100.529ZM110.338 131.089C109.545 131.089 108.93 130.876 108.493 130.45C108.057 130.023 107.839 129.413 107.839 128.62V121.389H109.267V128.56C109.267 128.987 109.371 129.314 109.579 129.542C109.798 129.77 110.105 129.884 110.502 129.884C110.948 129.884 111.32 129.76 111.618 129.512L112.064 130.539C111.846 130.727 111.583 130.866 111.275 130.955C110.978 131.045 110.666 131.089 110.338 131.089ZM106.5 124.29V123.115H111.528V124.29H106.5ZM113.791 131V123.115H115.219V131H113.791ZM114.505 121.597C114.227 121.597 113.994 121.508 113.806 121.33C113.627 121.151 113.538 120.933 113.538 120.675C113.538 120.407 113.627 120.184 113.806 120.006C113.994 119.827 114.227 119.738 114.505 119.738C114.783 119.738 115.011 119.827 115.189 120.006C115.378 120.174 115.472 120.387 115.472 120.645C115.472 120.913 115.383 121.141 115.204 121.33C115.026 121.508 114.792 121.597 114.505 121.597ZM122.156 123.041C122.801 123.041 123.366 123.165 123.852 123.413C124.348 123.66 124.735 124.037 125.013 124.543C125.29 125.049 125.429 125.689 125.429 126.462V131H124.001V126.626C124.001 125.862 123.813 125.287 123.436 124.9C123.069 124.513 122.548 124.32 121.874 124.32C121.368 124.32 120.926 124.419 120.549 124.618C120.173 124.816 119.88 125.109 119.672 125.495C119.473 125.882 119.374 126.363 119.374 126.938V131H117.946V123.115H119.315V125.242L119.091 124.677C119.349 124.161 119.746 123.76 120.282 123.472C120.817 123.184 121.442 123.041 122.156 123.041ZM131.524 133.975C130.8 133.975 130.096 133.871 129.411 133.663C128.737 133.465 128.186 133.177 127.76 132.8L128.444 131.699C128.811 132.017 129.263 132.265 129.798 132.443C130.334 132.632 130.894 132.726 131.479 132.726C132.412 132.726 133.096 132.508 133.532 132.071C133.969 131.635 134.187 130.97 134.187 130.078V128.411L134.336 126.849L134.261 125.272V123.115H135.615V129.929C135.615 131.317 135.268 132.339 134.574 132.994C133.88 133.648 132.863 133.975 131.524 133.975ZM131.345 130.673C130.582 130.673 129.897 130.514 129.292 130.197C128.697 129.869 128.221 129.418 127.864 128.843C127.517 128.268 127.343 127.603 127.343 126.849C127.343 126.086 127.517 125.421 127.864 124.856C128.221 124.28 128.697 123.834 129.292 123.517C129.897 123.199 130.582 123.041 131.345 123.041C132.02 123.041 132.635 123.179 133.19 123.457C133.746 123.725 134.187 124.142 134.514 124.707C134.852 125.272 135.02 125.986 135.02 126.849C135.02 127.702 134.852 128.411 134.514 128.977C134.187 129.542 133.746 129.969 133.19 130.256C132.635 130.534 132.02 130.673 131.345 130.673ZM131.509 129.423C132.035 129.423 132.501 129.314 132.908 129.096C133.314 128.877 133.632 128.575 133.86 128.188C134.098 127.801 134.217 127.355 134.217 126.849C134.217 126.343 134.098 125.897 133.86 125.51C133.632 125.123 133.314 124.826 132.908 124.618C132.501 124.399 132.035 124.29 131.509 124.29C130.983 124.29 130.512 124.399 130.096 124.618C129.689 124.826 129.367 125.123 129.129 125.51C128.901 125.897 128.787 126.343 128.787 126.849C128.787 127.355 128.901 127.801 129.129 128.188C129.367 128.575 129.689 128.877 130.096 129.096C130.512 129.314 130.983 129.423 131.509 129.423Z" fill="black"/>
<circle cx="43.5" cy="23.5" r="23.5" fill="#E61733"/>
<path d="M43.8006 30.2166C42.9223 30.2166 42.05 30.1023 41.1837 29.8737C40.3175 29.633 39.5835 29.2962 38.982 28.863L40.1189 26.6251C40.6002 26.9741 41.1597 27.2508 41.7973 27.4553C42.435 27.6599 43.0787 27.7621 43.7284 27.7621C44.4623 27.7621 45.0398 27.6178 45.4609 27.329C45.8821 27.0402 46.0926 26.6432 46.0926 26.1379C46.0926 25.6566 45.9061 25.2776 45.5331 25.0009C45.1602 24.7242 44.5586 24.5858 43.7284 24.5858H42.3929V22.6547L45.9121 18.6663L46.237 19.713H39.6136V17.3669H48.4568V19.2618L44.9556 23.2503L43.4757 22.4021H44.324C45.876 22.4021 47.0491 22.751 47.8432 23.4488C48.6373 24.1466 49.0343 25.043 49.0343 26.1379C49.0343 26.8477 48.8478 27.5155 48.4749 28.1411C48.1019 28.7547 47.5304 29.254 46.7604 29.6391C45.9903 30.0241 45.0038 30.2166 43.8006 30.2166Z" fill="white"/>
<rect x="244" y="96.5195" width="50" height="18.1034" rx="9.05172" fill="#3130EE"/>
<circle cx="276.758" cy="106.003" r="12.069" fill="white"/>
</svg>
