<svg width="344" height="165" viewBox="0 0 344 165" fill="none" xmlns="http://www.w3.org/2000/svg">
<rect x="0.5" y="24.5" width="343" height="140" rx="9.5" fill="white" stroke="#9E9E9E"/>
<path d="M199 24H334C339.523 24 344 28.4772 344 34V155C344 160.523 339.523 165 334 165H182L199 24Z" fill="#E61733"/>
<path d="M18.6301 95V85.8802H15.0595V84.5858H23.6735V85.8802H20.1029V95H18.6301ZM29.5589 95V93.3337L29.4845 93.0213V90.1797C29.4845 89.5747 29.306 89.1086 28.9489 88.7813C28.6018 88.444 28.0761 88.2754 27.3719 88.2754C26.9058 88.2754 26.4495 88.3548 26.0032 88.5135C25.5569 88.6622 25.18 88.8656 24.8725 89.1234L24.2774 88.0523C24.6841 87.725 25.1701 87.477 25.7354 87.3084C26.3107 87.1299 26.9107 87.0406 27.5356 87.0406C28.6167 87.0406 29.4498 87.3034 30.035 87.8291C30.6202 88.3548 30.9128 89.1581 30.9128 90.2392V95H29.5589ZM26.9702 95.0893C26.3851 95.0893 25.8693 94.9901 25.423 94.7917C24.9866 94.5934 24.6494 94.3206 24.4113 93.9735C24.1733 93.6164 24.0543 93.2147 24.0543 92.7684C24.0543 92.3419 24.1535 91.9551 24.3518 91.608C24.5601 91.2608 24.8924 90.9831 25.3486 90.7748C25.8148 90.5665 26.4396 90.4624 27.2232 90.4624H29.7226V91.4889H27.2827C26.5686 91.4889 26.0875 91.608 25.8396 91.846C25.5916 92.084 25.4676 92.3717 25.4676 92.7089C25.4676 93.0957 25.6214 93.4081 25.9288 93.6462C26.2363 93.8743 26.6628 93.9883 27.2083 93.9883C27.7439 93.9883 28.21 93.8693 28.6068 93.6313C29.0134 93.3932 29.306 93.0461 29.4845 92.5899L29.7672 93.5718C29.5788 94.0379 29.2465 94.4099 28.7704 94.6876C28.2943 94.9554 27.6943 95.0893 26.9702 95.0893ZM37.7364 95.0893C37.0818 95.0893 36.4817 94.9405 35.9362 94.6429C35.4006 94.3355 34.9692 93.8842 34.6419 93.2891C34.3245 92.694 34.1658 91.9501 34.1658 91.0575C34.1658 90.1649 34.3195 89.421 34.627 88.8259C34.9444 88.2308 35.3709 87.7845 35.9064 87.4869C36.4519 87.1894 37.0619 87.0406 37.7364 87.0406C38.51 87.0406 39.1943 87.2092 39.7894 87.5464C40.3845 87.8837 40.8557 88.3548 41.2028 88.9598C41.5499 89.5549 41.7235 90.2541 41.7235 91.0575C41.7235 91.8609 41.5499 92.5651 41.2028 93.1701C40.8557 93.7751 40.3845 94.2462 39.7894 94.5834C39.1943 94.9207 38.51 95.0893 37.7364 95.0893ZM33.5558 97.8862V87.115H34.9245V89.2425L34.8353 91.0724L34.984 92.9023V97.8862H33.5558ZM37.6173 93.8396C38.1232 93.8396 38.5745 93.7255 38.9712 93.4974C39.3778 93.2693 39.6952 92.9469 39.9233 92.5304C40.1614 92.1039 40.2804 91.6129 40.2804 91.0575C40.2804 90.4922 40.1614 90.0062 39.9233 89.5995C39.6952 89.1829 39.3778 88.8606 38.9712 88.6325C38.5745 88.4044 38.1232 88.2903 37.6173 88.2903C37.1214 88.2903 36.6701 88.4044 36.2635 88.6325C35.8668 88.8606 35.5494 89.1829 35.3113 89.5995C35.0832 90.0062 34.9692 90.4922 34.9692 91.0575C34.9692 91.6129 35.0832 92.1039 35.3113 92.5304C35.5494 92.9469 35.8668 93.2693 36.2635 93.4974C36.6701 93.7255 37.1214 93.8396 37.6173 93.8396ZM48.9271 83.961L48.1832 86.9811L48.0047 86.1182C48.2923 86.1182 48.5303 86.2075 48.7188 86.386C48.9072 86.5645 49.0014 86.8026 49.0014 87.1001C49.0014 87.3977 48.9072 87.6407 48.7188 87.8291C48.5303 88.0175 48.2972 88.1118 48.0195 88.1118C47.7319 88.1118 47.4939 88.0175 47.3054 87.8291C47.117 87.6307 47.0228 87.3877 47.0228 87.1001C47.0228 87.0009 47.0277 86.9067 47.0376 86.8174C47.0575 86.7282 47.0872 86.624 47.1269 86.505C47.1666 86.3761 47.2211 86.2223 47.2905 86.0438L47.9898 83.961H48.9271ZM54.2657 95.0893C53.4723 95.0893 52.7681 94.9157 52.1531 94.5686C51.5382 94.2214 51.0522 93.7453 50.6951 93.1403C50.3381 92.5254 50.1596 91.8311 50.1596 91.0575C50.1596 90.274 50.3381 89.5797 50.6951 88.9747C51.0522 88.3696 51.5382 87.8985 52.1531 87.5613C52.7681 87.2142 53.4723 87.0406 54.2657 87.0406C55.0493 87.0406 55.7485 87.2142 56.3634 87.5613C56.9883 87.8985 57.4743 88.3696 57.8214 88.9747C58.1785 89.5698 58.357 90.264 58.357 91.0575C58.357 91.841 58.1785 92.5353 57.8214 93.1403C57.4743 93.7453 56.9883 94.2214 56.3634 94.5686C55.7485 94.9157 55.0493 95.0893 54.2657 95.0893ZM54.2657 93.8396C54.7715 93.8396 55.2228 93.7255 55.6196 93.4974C56.0262 93.2693 56.3436 92.9469 56.5717 92.5304C56.7998 92.1039 56.9139 91.6129 56.9139 91.0575C56.9139 90.4922 56.7998 90.0062 56.5717 89.5995C56.3436 89.1829 56.0262 88.8606 55.6196 88.6325C55.2228 88.4044 54.7715 88.2903 54.2657 88.2903C53.7599 88.2903 53.3086 88.4044 52.9119 88.6325C52.5151 88.8606 52.1978 89.1829 51.9597 89.5995C51.7217 90.0062 51.6027 90.4922 51.6027 91.0575C51.6027 91.6129 51.7217 92.1039 51.9597 92.5304C52.1978 92.9469 52.5151 93.2693 52.9119 93.4974C53.3086 93.7255 53.7599 93.8396 54.2657 93.8396ZM61.4926 93.0957L61.5224 91.2658L66.06 87.115H67.7858L64.3045 90.5368L63.5308 91.1914L61.4926 93.0957ZM60.3322 95V83.961H61.7604V95H60.3322ZM66.3575 95L63.263 91.1616L64.1854 90.0161L68.1131 95H66.3575ZM68.9345 88.0225L69.6783 85.0024L69.8717 85.8653C69.5841 85.8653 69.3411 85.776 69.1428 85.5975C68.9543 85.419 68.8601 85.1809 68.8601 84.8834C68.8601 84.5759 68.9543 84.3329 69.1428 84.1544C69.3411 83.9659 69.5792 83.8717 69.8569 83.8717C70.1445 83.8717 70.3776 83.9709 70.5561 84.1693C70.7346 84.3577 70.8239 84.5957 70.8239 84.8834C70.8239 84.9726 70.8189 85.0669 70.809 85.166C70.7991 85.2553 70.7743 85.3595 70.7346 85.4785C70.7049 85.5975 70.6553 85.7512 70.5859 85.9397L69.8717 88.0225H68.9345ZM79.5735 95.0893C78.7801 95.0893 78.1651 94.876 77.7287 94.4495C77.2923 94.0231 77.0741 93.4131 77.0741 92.6196V85.3892H78.5024V92.5601C78.5024 92.9866 78.6065 93.3139 78.8148 93.542C79.033 93.7701 79.3405 93.8842 79.7372 93.8842C80.1835 93.8842 80.5554 93.7602 80.853 93.5123L81.2993 94.5388C81.0811 94.7272 80.8183 94.8661 80.5108 94.9554C80.2133 95.0446 79.9008 95.0893 79.5735 95.0893ZM75.7352 88.2903V87.115H80.7637V88.2903H75.7352ZM86.1417 95.0893C85.3482 95.0893 84.644 94.9157 84.0291 94.5686C83.4141 94.2214 82.9282 93.7453 82.5711 93.1403C82.214 92.5254 82.0355 91.8311 82.0355 91.0575C82.0355 90.274 82.214 89.5797 82.5711 88.9747C82.9282 88.3696 83.4141 87.8985 84.0291 87.5613C84.644 87.2142 85.3482 87.0406 86.1417 87.0406C86.9252 87.0406 87.6244 87.2142 88.2394 87.5613C88.8642 87.8985 89.3502 88.3696 89.6974 88.9747C90.0544 89.5698 90.2329 90.264 90.2329 91.0575C90.2329 91.841 90.0544 92.5353 89.6974 93.1403C89.3502 93.7453 88.8642 94.2214 88.2394 94.5686C87.6244 94.9157 86.9252 95.0893 86.1417 95.0893ZM86.1417 93.8396C86.6475 93.8396 87.0988 93.7255 87.4955 93.4974C87.9022 93.2693 88.2195 92.9469 88.4477 92.5304C88.6758 92.1039 88.7898 91.6129 88.7898 91.0575C88.7898 90.4922 88.6758 90.0062 88.4477 89.5995C88.2195 89.1829 87.9022 88.8606 87.4955 88.6325C87.0988 88.4044 86.6475 88.2903 86.1417 88.2903C85.6358 88.2903 85.1846 88.4044 84.7878 88.6325C84.3911 88.8606 84.0737 89.1829 83.8357 89.5995C83.5976 90.0062 83.4786 90.4922 83.4786 91.0575C83.4786 91.6129 83.5976 92.1039 83.8357 92.5304C84.0737 92.9469 84.3911 93.2693 84.7878 93.4974C85.1846 93.7255 85.6358 93.8396 86.1417 93.8396ZM99.4617 95.0893C98.698 95.0893 98.0136 94.9207 97.4086 94.5834C96.8135 94.2462 96.3424 93.7751 95.9953 93.1701C95.6481 92.5651 95.4746 91.8609 95.4746 91.0575C95.4746 90.2541 95.6481 89.5549 95.9953 88.9598C96.3424 88.3548 96.8135 87.8837 97.4086 87.5464C98.0136 87.2092 98.698 87.0406 99.4617 87.0406C100.126 87.0406 100.726 87.1894 101.262 87.4869C101.797 87.7845 102.224 88.2308 102.541 88.8259C102.869 89.421 103.032 90.1649 103.032 91.0575C103.032 91.9501 102.874 92.694 102.556 93.2891C102.249 93.8842 101.827 94.3355 101.292 94.6429C100.756 94.9405 100.146 95.0893 99.4617 95.0893ZM99.5807 93.8396C100.077 93.8396 100.523 93.7255 100.92 93.4974C101.326 93.2693 101.644 92.9469 101.872 92.5304C102.11 92.1039 102.229 91.6129 102.229 91.0575C102.229 90.4922 102.11 90.0062 101.872 89.5995C101.644 89.1829 101.326 88.8606 100.92 88.6325C100.523 88.4044 100.077 88.2903 99.5807 88.2903C99.0749 88.2903 98.6236 88.4044 98.2269 88.6325C97.8301 88.8606 97.5128 89.1829 97.2747 89.5995C97.0367 90.0062 96.9177 90.4922 96.9177 91.0575C96.9177 91.6129 97.0367 92.1039 97.2747 92.5304C97.5128 92.9469 97.8301 93.2693 98.2269 93.4974C98.6236 93.7255 99.0749 93.8396 99.5807 93.8396ZM102.274 95V92.8725L102.363 91.0426L102.214 89.2127V83.961H103.642V95H102.274ZM109.722 95.0893C108.928 95.0893 108.224 94.9157 107.609 94.5686C106.994 94.2214 106.508 93.7453 106.151 93.1403C105.794 92.5254 105.616 91.8311 105.616 91.0575C105.616 90.274 105.794 89.5797 106.151 88.9747C106.508 88.3696 106.994 87.8985 107.609 87.5613C108.224 87.2142 108.928 87.0406 109.722 87.0406C110.505 87.0406 111.205 87.2142 111.819 87.5613C112.444 87.8985 112.93 88.3696 113.277 88.9747C113.634 89.5698 113.813 90.264 113.813 91.0575C113.813 91.841 113.634 92.5353 113.277 93.1403C112.93 93.7453 112.444 94.2214 111.819 94.5686C111.205 94.9157 110.505 95.0893 109.722 95.0893ZM109.722 93.8396C110.228 93.8396 110.679 93.7255 111.076 93.4974C111.482 93.2693 111.8 92.9469 112.028 92.5304C112.256 92.1039 112.37 91.6129 112.37 91.0575C112.37 90.4922 112.256 90.0062 112.028 89.5995C111.8 89.1829 111.482 88.8606 111.076 88.6325C110.679 88.4044 110.228 88.2903 109.722 88.2903C109.216 88.2903 108.765 88.4044 108.368 88.6325C107.971 88.8606 107.654 89.1829 107.416 89.5995C107.178 90.0062 107.059 90.4922 107.059 91.0575C107.059 91.6129 107.178 92.1039 107.416 92.5304C107.654 92.9469 107.971 93.2693 108.368 93.4974C108.765 93.7255 109.216 93.8396 109.722 93.8396ZM117.237 95L114.306 87.115H115.66L118.263 94.2561H117.623L120.331 87.115H121.536L124.184 94.2561H123.559L126.223 87.115H127.502L124.556 95H123.188L120.703 88.4837H121.12L118.605 95H117.237ZM133.162 87.0406C133.806 87.0406 134.372 87.1646 134.858 87.4125C135.353 87.6605 135.74 88.0374 136.018 88.5432C136.296 89.049 136.435 89.6888 136.435 90.4624V95H135.006V90.626C135.006 89.8623 134.818 89.2871 134.441 88.9003C134.074 88.5135 133.553 88.3201 132.879 88.3201C132.373 88.3201 131.932 88.4192 131.555 88.6176C131.178 88.816 130.885 89.1086 130.677 89.4954C130.479 89.8822 130.379 90.3632 130.379 90.9385V95H128.951V87.115H130.32V89.2425L130.097 88.6771C130.355 88.1614 130.751 87.7597 131.287 87.472C131.823 87.1844 132.447 87.0406 133.162 87.0406ZM139.078 95V83.961H140.506V95H139.078ZM146.61 95.0893C145.817 95.0893 145.112 94.9157 144.498 94.5686C143.883 94.2214 143.397 93.7453 143.04 93.1403C142.682 92.5254 142.504 91.8311 142.504 91.0575C142.504 90.274 142.682 89.5797 143.04 88.9747C143.397 88.3696 143.883 87.8985 144.498 87.5613C145.112 87.2142 145.817 87.0406 146.61 87.0406C147.394 87.0406 148.093 87.2142 148.708 87.5613C149.333 87.8985 149.819 88.3696 150.166 88.9747C150.523 89.5698 150.701 90.264 150.701 91.0575C150.701 91.841 150.523 92.5353 150.166 93.1403C149.819 93.7453 149.333 94.2214 148.708 94.5686C148.093 94.9157 147.394 95.0893 146.61 95.0893ZM146.61 93.8396C147.116 93.8396 147.567 93.7255 147.964 93.4974C148.371 93.2693 148.688 92.9469 148.916 92.5304C149.144 92.1039 149.258 91.6129 149.258 91.0575C149.258 90.4922 149.144 90.0062 148.916 89.5995C148.688 89.1829 148.371 88.8606 147.964 88.6325C147.567 88.4044 147.116 88.2903 146.61 88.2903C146.104 88.2903 145.653 88.4044 145.256 88.6325C144.86 88.8606 144.542 89.1829 144.304 89.5995C144.066 90.0062 143.947 90.4922 143.947 91.0575C143.947 91.6129 144.066 92.1039 144.304 92.5304C144.542 92.9469 144.86 93.2693 145.256 93.4974C145.653 93.7255 146.104 93.8396 146.61 93.8396ZM157.499 95V93.3337L157.424 93.0213V90.1797C157.424 89.5747 157.246 89.1086 156.889 88.7813C156.541 88.444 156.016 88.2754 155.312 88.2754C154.845 88.2754 154.389 88.3548 153.943 88.5135C153.497 88.6622 153.12 88.8656 152.812 89.1234L152.217 88.0523C152.624 87.725 153.11 87.477 153.675 87.3084C154.25 87.1299 154.85 87.0406 155.475 87.0406C156.556 87.0406 157.389 87.3034 157.975 87.8291C158.56 88.3548 158.852 89.1581 158.852 90.2392V95H157.499ZM154.91 95.0893C154.325 95.0893 153.809 94.9901 153.363 94.7917C152.926 94.5934 152.589 94.3206 152.351 93.9735C152.113 93.6164 151.994 93.2147 151.994 92.7684C151.994 92.3419 152.093 91.9551 152.292 91.608C152.5 91.2608 152.832 90.9831 153.288 90.7748C153.754 90.5665 154.379 90.4624 155.163 90.4624H157.662V91.4889H155.222C154.508 91.4889 154.027 91.608 153.779 91.846C153.531 92.084 153.407 92.3717 153.407 92.7089C153.407 93.0957 153.561 93.4081 153.869 93.6462C154.176 93.8743 154.602 93.9883 155.148 93.9883C155.684 93.9883 156.15 93.8693 156.546 93.6313C156.953 93.3932 157.246 93.0461 157.424 92.5899L157.707 93.5718C157.518 94.0379 157.186 94.4099 156.71 94.6876C156.234 94.9554 155.634 95.0893 154.91 95.0893ZM164.754 95.0893C163.99 95.0893 163.306 94.9207 162.701 94.5834C162.105 94.2462 161.634 93.7751 161.287 93.1701C160.94 92.5651 160.767 91.8609 160.767 91.0575C160.767 90.2541 160.94 89.5549 161.287 88.9598C161.634 88.3548 162.105 87.8837 162.701 87.5464C163.306 87.2092 163.99 87.0406 164.754 87.0406C165.418 87.0406 166.018 87.1894 166.554 87.4869C167.089 87.7845 167.516 88.2308 167.833 88.8259C168.161 89.421 168.324 90.1649 168.324 91.0575C168.324 91.9501 168.166 92.694 167.848 93.2891C167.541 93.8842 167.119 94.3355 166.584 94.6429C166.048 94.9405 165.438 95.0893 164.754 95.0893ZM164.873 93.8396C165.369 93.8396 165.815 93.7255 166.212 93.4974C166.618 93.2693 166.936 92.9469 167.164 92.5304C167.402 92.1039 167.521 91.6129 167.521 91.0575C167.521 90.4922 167.402 90.0062 167.164 89.5995C166.936 89.1829 166.618 88.8606 166.212 88.6325C165.815 88.4044 165.369 88.2903 164.873 88.2903C164.367 88.2903 163.916 88.4044 163.519 88.6325C163.122 88.8606 162.805 89.1829 162.567 89.5995C162.329 90.0062 162.21 90.4922 162.21 91.0575C162.21 91.6129 162.329 92.1039 162.567 92.5304C162.805 92.9469 163.122 93.2693 163.519 93.4974C163.916 93.7255 164.367 93.8396 164.873 93.8396ZM167.565 95V92.8725L167.655 91.0426L167.506 89.2127V83.961H168.934V95H167.565ZM19.0615 113.089C18.2681 113.089 17.6531 112.876 17.2167 112.45C16.7803 112.023 16.5621 111.413 16.5621 110.62V103.389H17.9904V110.56C17.9904 110.987 18.0945 111.314 18.3028 111.542C18.521 111.77 18.8284 111.884 19.2252 111.884C19.6715 111.884 20.0434 111.76 20.341 111.512L20.7873 112.539C20.5691 112.727 20.3063 112.866 19.9988 112.955C19.7013 113.045 19.3888 113.089 19.0615 113.089ZM15.2232 106.29V105.115H20.2517V106.29H15.2232ZM26.7243 105.041C27.369 105.041 27.9343 105.165 28.4203 105.413C28.9162 105.66 29.3031 106.037 29.5808 106.543C29.8585 107.049 29.9973 107.689 29.9973 108.462V113H28.5691V108.626C28.5691 107.862 28.3807 107.287 28.0038 106.9C27.6368 106.513 27.1161 106.32 26.4416 106.32C25.9358 106.32 25.4944 106.419 25.1176 106.618C24.7407 106.816 24.4481 107.109 24.2398 107.495C24.0414 107.882 23.9422 108.363 23.9422 108.938V113H22.514V101.961H23.9422V107.242L23.6596 106.677C23.9174 106.161 24.3142 105.76 24.8498 105.472C25.3853 105.184 26.0102 105.041 26.7243 105.041ZM36.1516 113.089C35.3085 113.089 34.5647 112.916 33.92 112.569C33.2852 112.221 32.7893 111.745 32.4322 111.14C32.0851 110.535 31.9115 109.841 31.9115 109.057C31.9115 108.274 32.0801 107.58 32.4173 106.975C32.7645 106.37 33.2356 105.899 33.8307 105.561C34.4357 105.214 35.1151 105.041 35.8689 105.041C36.6326 105.041 37.307 105.209 37.8922 105.546C38.4774 105.884 38.9336 106.36 39.2609 106.975C39.5982 107.58 39.7668 108.289 39.7668 109.102C39.7668 109.162 39.7618 109.231 39.7519 109.31C39.7519 109.39 39.7469 109.464 39.737 109.534H33.0273V108.507H38.9932L38.4129 108.864C38.4229 108.358 38.3187 107.907 38.1005 107.51C37.8823 107.114 37.5798 106.806 37.193 106.588C36.8161 106.36 36.3747 106.246 35.8689 106.246C35.373 106.246 34.9316 106.36 34.5448 106.588C34.158 106.806 33.8555 107.118 33.6373 107.525C33.4191 107.922 33.31 108.378 33.31 108.894V109.132C33.31 109.658 33.429 110.129 33.667 110.545C33.915 110.952 34.2572 111.269 34.6936 111.497C35.13 111.726 35.6309 111.84 36.1962 111.84C36.6624 111.84 37.0839 111.76 37.4608 111.602C37.8476 111.443 38.1848 111.205 38.4724 110.887L39.2609 111.81C38.9039 112.226 38.4576 112.544 37.922 112.762C37.3963 112.98 36.8062 113.089 36.1516 113.089ZM50.64 113V111.334L50.5657 111.021V108.18C50.5657 107.575 50.3871 107.109 50.0301 106.781C49.6829 106.444 49.1573 106.275 48.4531 106.275C47.9869 106.275 47.5307 106.355 47.0844 106.513C46.638 106.662 46.2611 106.866 45.9537 107.123L45.3586 106.052C45.7652 105.725 46.2512 105.477 46.8166 105.308C47.3918 105.13 47.9919 105.041 48.6167 105.041C49.6978 105.041 50.5309 105.303 51.1161 105.829C51.7013 106.355 51.9939 107.158 51.9939 108.239V113H50.64ZM48.0514 113.089C47.4662 113.089 46.9505 112.99 46.5041 112.792C46.0677 112.593 45.7305 112.321 45.4925 111.973C45.2544 111.616 45.1354 111.215 45.1354 110.768C45.1354 110.342 45.2346 109.955 45.433 109.608C45.6412 109.261 45.9735 108.983 46.4297 108.775C46.8959 108.567 47.5208 108.462 48.3043 108.462H50.8037V109.489H48.3638C47.6497 109.489 47.1687 109.608 46.9207 109.846C46.6727 110.084 46.5488 110.372 46.5488 110.709C46.5488 111.096 46.7025 111.408 47.01 111.646C47.3174 111.874 47.7439 111.988 48.2894 111.988C48.825 111.988 49.2912 111.869 49.6879 111.631C50.0945 111.393 50.3871 111.046 50.5657 110.59L50.8483 111.572C50.6599 112.038 50.3276 112.41 49.8515 112.688C49.3755 112.955 48.7754 113.089 48.0514 113.089ZM58.8175 113.089C58.1629 113.089 57.5628 112.94 57.0173 112.643C56.4817 112.335 56.0503 111.884 55.723 111.289C55.4056 110.694 55.2469 109.95 55.2469 109.057C55.2469 108.165 55.4007 107.421 55.7081 106.826C56.0255 106.231 56.452 105.784 56.9876 105.487C57.5331 105.189 58.1431 105.041 58.8175 105.041C59.5911 105.041 60.2755 105.209 60.8706 105.546C61.4657 105.884 61.9368 106.355 62.2839 106.96C62.6311 107.555 62.8046 108.254 62.8046 109.057C62.8046 109.861 62.6311 110.565 62.2839 111.17C61.9368 111.775 61.4657 112.246 60.8706 112.583C60.2755 112.921 59.5911 113.089 58.8175 113.089ZM54.637 115.886V105.115H56.0057V107.242L55.9164 109.072L56.0652 110.902V115.886H54.637ZM58.6985 111.84C59.2043 111.84 59.6556 111.726 60.0523 111.497C60.459 111.269 60.7764 110.947 61.0045 110.53C61.2425 110.104 61.3615 109.613 61.3615 109.057C61.3615 108.492 61.2425 108.006 61.0045 107.6C60.7764 107.183 60.459 106.861 60.0523 106.632C59.6556 106.404 59.2043 106.29 58.6985 106.29C58.2026 106.29 57.7513 106.404 57.3446 106.632C56.9479 106.861 56.6305 107.183 56.3925 107.6C56.1644 108.006 56.0503 108.492 56.0503 109.057C56.0503 109.613 56.1644 110.104 56.3925 110.53C56.6305 110.947 56.9479 111.269 57.3446 111.497C57.7513 111.726 58.2026 111.84 58.6985 111.84ZM68.9585 113.089C68.3039 113.089 67.7039 112.94 67.1584 112.643C66.6228 112.335 66.1913 111.884 65.864 111.289C65.5466 110.694 65.388 109.95 65.388 109.057C65.388 108.165 65.5417 107.421 65.8492 106.826C66.1665 106.231 66.593 105.784 67.1286 105.487C67.6741 105.189 68.2841 105.041 68.9585 105.041C69.7321 105.041 70.4165 105.209 71.0116 105.546C71.6067 105.884 72.0778 106.355 72.425 106.96C72.7721 107.555 72.9457 108.254 72.9457 109.057C72.9457 109.861 72.7721 110.565 72.425 111.17C72.0778 111.775 71.6067 112.246 71.0116 112.583C70.4165 112.921 69.7321 113.089 68.9585 113.089ZM64.778 115.886V105.115H66.1467V107.242L66.0574 109.072L66.2062 110.902V115.886H64.778ZM68.8395 111.84C69.3453 111.84 69.7966 111.726 70.1933 111.497C70.6 111.269 70.9174 110.947 71.1455 110.53C71.3835 110.104 71.5026 109.613 71.5026 109.057C71.5026 108.492 71.3835 108.006 71.1455 107.6C70.9174 107.183 70.6 106.861 70.1933 106.632C69.7966 106.404 69.3453 106.29 68.8395 106.29C68.3436 106.29 67.8923 106.404 67.4857 106.632C67.0889 106.861 66.7715 107.183 66.5335 107.6C66.3054 108.006 66.1913 108.492 66.1913 109.057C66.1913 109.613 66.3054 110.104 66.5335 110.53C66.7715 110.947 67.0889 111.269 67.4857 111.497C67.8923 111.726 68.3436 111.84 68.8395 111.84ZM75.0868 113.089C74.8091 113.089 74.5711 112.995 74.3727 112.807C74.1744 112.608 74.0752 112.36 74.0752 112.063C74.0752 111.765 74.1744 111.522 74.3727 111.334C74.5711 111.145 74.8091 111.051 75.0868 111.051C75.3546 111.051 75.5828 111.145 75.7712 111.334C75.9696 111.522 76.0688 111.765 76.0688 112.063C76.0688 112.36 75.9696 112.608 75.7712 112.807C75.5828 112.995 75.3546 113.089 75.0868 113.089Z" fill="black"/>
<circle cx="43.5" cy="23.5" r="23.5" fill="#E61733"/>
<g clip-path="url(#clip0_1464_412)">
<rect x="238" y="69.082" width="65.6963" height="28.526" rx="4.32213" fill="#3130EE"/>
<path d="M264.653 89.7556C263.654 89.7556 262.728 89.5932 261.873 89.2684C261.031 88.9435 260.297 88.4863 259.672 87.8968C259.058 87.3072 258.577 86.6154 258.228 85.8213C257.891 85.0272 257.722 84.161 257.722 83.2225C257.722 82.284 257.891 81.4178 258.228 80.6237C258.577 79.8296 259.064 79.1378 259.69 78.5482C260.315 77.9587 261.049 77.5015 261.891 77.1766C262.734 76.8518 263.648 76.6894 264.635 76.6894C265.633 76.6894 266.548 76.8518 267.378 77.1766C268.22 77.5015 268.948 77.9587 269.561 78.5482C270.187 79.1378 270.674 79.8296 271.023 80.6237C271.372 81.4057 271.547 82.272 271.547 83.2225C271.547 84.161 271.372 85.0332 271.023 85.8394C270.674 86.6334 270.187 87.3253 269.561 87.9148C268.948 88.4923 268.22 88.9435 267.378 89.2684C266.548 89.5932 265.639 89.7556 264.653 89.7556ZM264.635 87.2651C265.2 87.2651 265.717 87.1688 266.187 86.9763C266.668 86.7838 267.089 86.5071 267.45 86.1462C267.811 85.7852 268.088 85.3581 268.28 84.8648C268.485 84.3715 268.587 83.8241 268.587 83.2225C268.587 82.6209 268.485 82.0735 268.28 81.5802C268.088 81.0869 267.811 80.6598 267.45 80.2988C267.101 79.9379 266.686 79.6611 266.205 79.4686C265.723 79.2761 265.2 79.1799 264.635 79.1799C264.069 79.1799 263.546 79.2761 263.064 79.4686C262.595 79.6611 262.18 79.9379 261.819 80.2988C261.458 80.6598 261.175 81.0869 260.971 81.5802C260.778 82.0735 260.682 82.6209 260.682 83.2225C260.682 83.812 260.778 84.3595 260.971 84.8648C261.175 85.3581 261.452 85.7852 261.801 86.1462C262.162 86.5071 262.583 86.7838 263.064 86.9763C263.546 87.1688 264.069 87.2651 264.635 87.2651ZM275.874 87.5539L275.946 84.1249L280.476 79.8296H283.832L279.483 84.2512L278.021 85.4423L275.874 87.5539ZM273.545 89.5391V76.1479H276.361V89.5391H273.545ZM280.782 89.5391L277.498 85.4604L279.266 83.2766L284.193 89.5391H280.782Z" fill="white"/>
<g clip-path="url(#clip1_1464_412)">
<mask id="mask0_1464_412" style="mask-type:luminance" maskUnits="userSpaceOnUse" x="269" y="93" width="45" height="45">
<path d="M283.926 137.513L313.337 122.647L298.471 93.2356L269.06 108.102L283.926 137.513Z" fill="white"/>
</mask>
<g mask="url(#mask0_1464_412)">
<path d="M281.187 122.478C281.187 122.478 280.191 120.687 281.374 119.403C282.42 118.267 283.404 118.981 283.404 118.981C283.404 118.981 282.61 117.523 283.881 116.192C285.079 114.938 286.384 115.858 286.384 115.858C286.384 115.858 285.89 114.29 287.213 113.09C288.326 112.081 289.926 112.853 289.926 112.853L285.15 103.404C284.775 102.662 284.562 101.198 286.11 100.415C287.658 99.6315 288.661 100.738 289.02 101.448L297.04 117.315C297.431 118.089 298.205 117.698 297.814 116.924L296.771 114.86C295.288 111.925 295.945 109.308 296.243 108.527C296.54 107.744 297.15 107.116 298.138 106.855C299.815 106.411 300.074 107.742 300.144 108.949C300.313 111.854 301.319 115.607 301.915 117.322C303.594 122.165 301.478 127.625 296.778 130.005C291.651 132.6 285.321 130.648 282.725 125.522L281.187 122.478Z" fill="white"/>
</g>
</g>
<path d="M287.619 99.2336C284.8 99.4925 285.053 99.8114 283.793 102.278C281.895 102.062 280.532 100.348 280.748 98.4511C280.964 96.5537 282.678 95.1908 284.575 95.4069C286.473 95.623 287.835 97.3363 287.619 99.2336Z" fill="white"/>
</g>
<path d="M41.653 30V18.4497L42.9163 19.713H39.1263V17.3669H44.5766V30H41.653Z" fill="white"/>
<defs>
<clipPath id="clip0_1464_412">
<rect width="77" height="77" fill="white" transform="translate(238 66)"/>
</clipPath>
<clipPath id="clip1_1464_412">
<rect width="32.9551" height="32.9551" fill="white" transform="matrix(0.892475 -0.451097 -0.451097 -0.892475 283.924 137.504)"/>
</clipPath>
</defs>
</svg>
