<svg width="344" height="165" viewBox="0 0 344 165" fill="none" xmlns="http://www.w3.org/2000/svg">
<rect x="0.5" y="24.5" width="343" height="140" rx="9.5" fill="white" stroke="#9E9E9E"/>
<path d="M199 24H334C339.523 24 344 28.4772 344 34V155C344 160.523 339.523 165 334 165H182L199 24Z" fill="#E61733"/>
<path d="M18.9574 95L15.4761 84.5858H17.0084L20.2071 94.1966H19.4335L22.7511 84.5858H24.1198L27.3631 94.1966H26.6192L29.8625 84.5858H31.2759L27.7945 95H26.2324L23.1974 86.0884H23.5991L20.5493 95H18.9574ZM37.1865 95V93.3337L37.1121 93.0213V90.1797C37.1121 89.5747 36.9336 89.1086 36.5765 88.7813C36.2294 88.444 35.7037 88.2754 34.9995 88.2754C34.5333 88.2754 34.0771 88.3548 33.6308 88.5135C33.1845 88.6622 32.8076 88.8656 32.5001 89.1234L31.905 88.0523C32.3117 87.725 32.7977 87.477 33.363 87.3084C33.9383 87.1299 34.5383 87.0406 35.1632 87.0406C36.2442 87.0406 37.0774 87.3034 37.6626 87.8291C38.2477 88.3548 38.5403 89.1581 38.5403 90.2392V95H37.1865ZM34.5978 95.0893C34.0126 95.0893 33.4969 94.9901 33.0506 94.7917C32.6142 94.5934 32.2769 94.3206 32.0389 93.9735C31.8009 93.6164 31.6818 93.2147 31.6818 92.7684C31.6818 92.3419 31.781 91.9551 31.9794 91.608C32.1877 91.2608 32.5199 90.9831 32.9762 90.7748C33.4423 90.5665 34.0672 90.4624 34.8507 90.4624H37.3501V91.4889H34.9102C34.1961 91.4889 33.7151 91.608 33.4671 91.846C33.2192 92.084 33.0952 92.3717 33.0952 92.7089C33.0952 93.0957 33.2489 93.4081 33.5564 93.6462C33.8639 93.8743 34.2903 93.9883 34.8359 93.9883C35.3714 93.9883 35.8376 93.8693 36.2343 93.6313C36.641 93.3932 36.9336 93.0461 37.1121 92.5899L37.3948 93.5718C37.2063 94.0379 36.8741 94.4099 36.398 94.6876C35.9219 94.9554 35.3218 95.0893 34.5978 95.0893ZM41.1834 95V87.115H42.6116V95H41.1834ZM41.8975 85.5975C41.6198 85.5975 41.3867 85.5082 41.1983 85.3297C41.0197 85.1512 40.9305 84.933 40.9305 84.6751C40.9305 84.4073 41.0197 84.1841 41.1983 84.0056C41.3867 83.8271 41.6198 83.7378 41.8975 83.7378C42.1752 83.7378 42.4033 83.8271 42.5819 84.0056C42.7703 84.1742 42.8645 84.3875 42.8645 84.6453C42.8645 84.9131 42.7753 85.1413 42.5967 85.3297C42.4182 85.5082 42.1851 85.5975 41.8975 85.5975ZM48.0463 95.0893C47.2528 95.0893 46.6379 94.876 46.2015 94.4495C45.7651 94.0231 45.5469 93.4131 45.5469 92.6196V85.3892H46.9751V92.5601C46.9751 92.9866 47.0792 93.3139 47.2875 93.542C47.5057 93.7701 47.8132 93.8842 48.2099 93.8842C48.6562 93.8842 49.0282 93.7602 49.3257 93.5123L49.772 94.5388C49.5538 94.7272 49.291 94.8661 48.9835 94.9554C48.686 95.0446 48.3736 95.0893 48.0463 95.0893ZM44.2079 88.2903V87.115H49.2365V88.2903H44.2079ZM55.7024 95V86.4157C55.7024 85.6421 55.9256 85.0272 56.3719 84.571C56.8282 84.1048 57.4728 83.8717 58.306 83.8717C58.6134 83.8717 58.906 83.9114 59.1837 83.9907C59.4714 84.0602 59.7144 84.1742 59.9127 84.3329L59.4813 85.419C59.3325 85.2999 59.1639 85.2107 58.9755 85.1512C58.787 85.0817 58.5886 85.047 58.3804 85.047C57.9638 85.047 57.6464 85.166 57.4282 85.4041C57.21 85.6322 57.1009 85.9744 57.1009 86.4306V87.4869L57.1307 88.1415V95H55.7024ZM54.3635 88.2903V87.115H59.392V88.2903H54.3635ZM63.9999 95.0893C63.2065 95.0893 62.5023 94.9157 61.8874 94.5686C61.2724 94.2214 60.7864 93.7453 60.4294 93.1403C60.0723 92.5254 59.8938 91.8311 59.8938 91.0575C59.8938 90.274 60.0723 89.5797 60.4294 88.9747C60.7864 88.3696 61.2724 87.8985 61.8874 87.5613C62.5023 87.2142 63.2065 87.0406 63.9999 87.0406C64.7835 87.0406 65.4827 87.2142 66.0977 87.5613C66.7225 87.8985 67.2085 88.3696 67.5556 88.9747C67.9127 89.5698 68.0912 90.264 68.0912 91.0575C68.0912 91.841 67.9127 92.5353 67.5556 93.1403C67.2085 93.7453 66.7225 94.2214 66.0977 94.5686C65.4827 94.9157 64.7835 95.0893 63.9999 95.0893ZM63.9999 93.8396C64.5058 93.8396 64.9571 93.7255 65.3538 93.4974C65.7604 93.2693 66.0778 92.9469 66.3059 92.5304C66.5341 92.1039 66.6481 91.6129 66.6481 91.0575C66.6481 90.4922 66.5341 90.0062 66.3059 89.5995C66.0778 89.1829 65.7604 88.8606 65.3538 88.6325C64.9571 88.4044 64.5058 88.2903 63.9999 88.2903C63.4941 88.2903 63.0428 88.4044 62.6461 88.6325C62.2494 88.8606 61.932 89.1829 61.6939 89.5995C61.4559 90.0062 61.3369 90.4922 61.3369 91.0575C61.3369 91.6129 61.4559 92.1039 61.6939 92.5304C61.932 92.9469 62.2494 93.2693 62.6461 93.4974C63.0428 93.7255 63.4941 93.8396 63.9999 93.8396ZM70.0664 95V87.115H71.4351V89.2573L71.3013 88.7217C71.5195 88.1762 71.8864 87.7597 72.4022 87.472C72.9179 87.1844 73.5527 87.0406 74.3065 87.0406V88.4242C74.247 88.4143 74.1875 88.4093 74.128 88.4093C74.0784 88.4093 74.0288 88.4093 73.9792 88.4093C73.2155 88.4093 72.6105 88.6374 72.1641 89.0937C71.7178 89.5499 71.4947 90.2095 71.4947 91.0724V95H70.0664ZM83.422 95.0893C82.6583 95.0893 81.974 94.9207 81.3689 94.5834C80.7738 94.2462 80.3027 93.7751 79.9556 93.1701C79.6084 92.5651 79.4349 91.8609 79.4349 91.0575C79.4349 90.2541 79.6084 89.5549 79.9556 88.9598C80.3027 88.3548 80.7738 87.8837 81.3689 87.5464C81.974 87.2092 82.6583 87.0406 83.422 87.0406C84.0865 87.0406 84.6866 87.1894 85.2222 87.4869C85.7578 87.7845 86.1843 88.2308 86.5016 88.8259C86.8289 89.421 86.9926 90.1649 86.9926 91.0575C86.9926 91.9501 86.8339 92.694 86.5165 93.2891C86.209 93.8842 85.7875 94.3355 85.2519 94.6429C84.7163 94.9405 84.1064 95.0893 83.422 95.0893ZM83.541 93.8396C84.0369 93.8396 84.4833 93.7255 84.88 93.4974C85.2866 93.2693 85.604 92.9469 85.8322 92.5304C86.0702 92.1039 86.1892 91.6129 86.1892 91.0575C86.1892 90.4922 86.0702 90.0062 85.8322 89.5995C85.604 89.1829 85.2866 88.8606 84.88 88.6325C84.4833 88.4044 84.0369 88.2903 83.541 88.2903C83.0352 88.2903 82.5839 88.4044 82.1872 88.6325C81.7905 88.8606 81.4731 89.1829 81.235 89.5995C80.997 90.0062 80.878 90.4922 80.878 91.0575C80.878 91.6129 80.997 92.1039 81.235 92.5304C81.4731 92.9469 81.7905 93.2693 82.1872 93.4974C82.5839 93.7255 83.0352 93.8396 83.541 93.8396ZM86.2338 95V92.8725L86.3231 91.0426L86.1743 89.2127V83.961H87.6026V95H86.2338ZM93.6821 95.0893C92.8886 95.0893 92.1844 94.9157 91.5695 94.5686C90.9545 94.2214 90.4686 93.7453 90.1115 93.1403C89.7544 92.5254 89.5759 91.8311 89.5759 91.0575C89.5759 90.274 89.7544 89.5797 90.1115 88.9747C90.4686 88.3696 90.9545 87.8985 91.5695 87.5613C92.1844 87.2142 92.8886 87.0406 93.6821 87.0406C94.4656 87.0406 95.1648 87.2142 95.7798 87.5613C96.4046 87.8985 96.8906 88.3696 97.2378 88.9747C97.5948 89.5698 97.7733 90.264 97.7733 91.0575C97.7733 91.841 97.5948 92.5353 97.2378 93.1403C96.8906 93.7453 96.4046 94.2214 95.7798 94.5686C95.1648 94.9157 94.4656 95.0893 93.6821 95.0893ZM93.6821 93.8396C94.1879 93.8396 94.6392 93.7255 95.0359 93.4974C95.4426 93.2693 95.7599 92.9469 95.9881 92.5304C96.2162 92.1039 96.3302 91.6129 96.3302 91.0575C96.3302 90.4922 96.2162 90.0062 95.9881 89.5995C95.7599 89.1829 95.4426 88.8606 95.0359 88.6325C94.6392 88.4044 94.1879 88.2903 93.6821 88.2903C93.1762 88.2903 92.725 88.4044 92.3282 88.6325C91.9315 88.8606 91.6141 89.1829 91.3761 89.5995C91.138 90.0062 91.019 90.4922 91.019 91.0575C91.019 91.6129 91.138 92.1039 91.3761 92.5304C91.6141 92.9469 91.9315 93.2693 92.3282 93.4974C92.725 93.7255 93.1762 93.8396 93.6821 93.8396ZM101.197 95L98.266 87.115H99.6199L102.223 94.2561H101.584L104.291 87.115H105.496L108.145 94.2561H107.52L110.183 87.115H111.462L108.517 95H107.148L104.663 88.4837H105.08L102.566 95H101.197ZM117.122 87.0406C117.767 87.0406 118.332 87.1646 118.818 87.4125C119.314 87.6605 119.701 88.0374 119.978 88.5432C120.256 89.049 120.395 89.6888 120.395 90.4624V95H118.967V90.626C118.967 89.8623 118.778 89.2871 118.401 88.9003C118.034 88.5135 117.514 88.3201 116.839 88.3201C116.333 88.3201 115.892 88.4192 115.515 88.6176C115.138 88.816 114.846 89.1086 114.637 89.4954C114.439 89.8822 114.34 90.3632 114.34 90.9385V95H112.912V87.115H114.28V89.2425L114.057 88.6771C114.315 88.1614 114.712 87.7597 115.247 87.472C115.783 87.1844 116.408 87.0406 117.122 87.0406ZM123.038 95V83.961H124.466V95H123.038ZM130.57 95.0893C129.777 95.0893 129.073 94.9157 128.458 94.5686C127.843 94.2214 127.357 93.7453 127 93.1403C126.643 92.5254 126.464 91.8311 126.464 91.0575C126.464 90.274 126.643 89.5797 127 88.9747C127.357 88.3696 127.843 87.8985 128.458 87.5613C129.073 87.2142 129.777 87.0406 130.57 87.0406C131.354 87.0406 132.053 87.2142 132.668 87.5613C133.293 87.8985 133.779 88.3696 134.126 88.9747C134.483 89.5698 134.662 90.264 134.662 91.0575C134.662 91.841 134.483 92.5353 134.126 93.1403C133.779 93.7453 133.293 94.2214 132.668 94.5686C132.053 94.9157 131.354 95.0893 130.57 95.0893ZM130.57 93.8396C131.076 93.8396 131.528 93.7255 131.924 93.4974C132.331 93.2693 132.648 92.9469 132.876 92.5304C133.105 92.1039 133.219 91.6129 133.219 91.0575C133.219 90.4922 133.105 90.0062 132.876 89.5995C132.648 89.1829 132.331 88.8606 131.924 88.6325C131.528 88.4044 131.076 88.2903 130.57 88.2903C130.065 88.2903 129.613 88.4044 129.217 88.6325C128.82 88.8606 128.502 89.1829 128.264 89.5995C128.026 90.0062 127.907 90.4922 127.907 91.0575C127.907 91.6129 128.026 92.1039 128.264 92.5304C128.502 92.9469 128.82 93.2693 129.217 93.4974C129.613 93.7255 130.065 93.8396 130.57 93.8396ZM141.459 95V93.3337L141.385 93.0213V90.1797C141.385 89.5747 141.206 89.1086 140.849 88.7813C140.502 88.444 139.976 88.2754 139.272 88.2754C138.806 88.2754 138.35 88.3548 137.903 88.5135C137.457 88.6622 137.08 88.8656 136.773 89.1234L136.177 88.0523C136.584 87.725 137.07 87.477 137.635 87.3084C138.211 87.1299 138.811 87.0406 139.436 87.0406C140.517 87.0406 141.35 87.3034 141.935 87.8291C142.52 88.3548 142.813 89.1581 142.813 90.2392V95H141.459ZM138.87 95.0893C138.285 95.0893 137.769 94.9901 137.323 94.7917C136.887 94.5934 136.549 94.3206 136.311 93.9735C136.073 93.6164 135.954 93.2147 135.954 92.7684C135.954 92.3419 136.053 91.9551 136.252 91.608C136.46 91.2608 136.792 90.9831 137.249 90.7748C137.715 90.5665 138.34 90.4624 139.123 90.4624H141.623V91.4889H139.183C138.469 91.4889 137.988 91.608 137.74 91.846C137.492 92.084 137.368 92.3717 137.368 92.7089C137.368 93.0957 137.521 93.4081 137.829 93.6462C138.136 93.8743 138.563 93.9883 139.108 93.9883C139.644 93.9883 140.11 93.8693 140.507 93.6313C140.913 93.3932 141.206 93.0461 141.385 92.5899L141.667 93.5718C141.479 94.0379 141.146 94.4099 140.67 94.6876C140.194 94.9554 139.594 95.0893 138.87 95.0893ZM148.714 95.0893C147.95 95.0893 147.266 94.9207 146.661 94.5834C146.066 94.2462 145.595 93.7751 145.248 93.1701C144.9 92.5651 144.727 91.8609 144.727 91.0575C144.727 90.2541 144.9 89.5549 145.248 88.9598C145.595 88.3548 146.066 87.8837 146.661 87.5464C147.266 87.2092 147.95 87.0406 148.714 87.0406C149.378 87.0406 149.979 87.1894 150.514 87.4869C151.05 87.7845 151.476 88.2308 151.794 88.8259C152.121 89.421 152.285 90.1649 152.285 91.0575C152.285 91.9501 152.126 92.694 151.808 93.2891C151.501 93.8842 151.079 94.3355 150.544 94.6429C150.008 94.9405 149.398 95.0893 148.714 95.0893ZM148.833 93.8396C149.329 93.8396 149.775 93.7255 150.172 93.4974C150.579 93.2693 150.896 92.9469 151.124 92.5304C151.362 92.1039 151.481 91.6129 151.481 91.0575C151.481 90.4922 151.362 90.0062 151.124 89.5995C150.896 89.1829 150.579 88.8606 150.172 88.6325C149.775 88.4044 149.329 88.2903 148.833 88.2903C148.327 88.2903 147.876 88.4044 147.479 88.6325C147.082 88.8606 146.765 89.1829 146.527 89.5995C146.289 90.0062 146.17 90.4922 146.17 91.0575C146.17 91.6129 146.289 92.1039 146.527 92.5304C146.765 92.9469 147.082 93.2693 147.479 93.4974C147.876 93.7255 148.327 93.8396 148.833 93.8396ZM151.526 95V92.8725L151.615 91.0426L151.466 89.2127V83.961H152.895V95H151.526ZM162.3 95.0893C161.506 95.0893 160.892 94.876 160.455 94.4495C160.019 94.0231 159.801 93.4131 159.801 92.6196V85.3892H161.229V92.5601C161.229 92.9866 161.333 93.3139 161.541 93.542C161.759 93.7701 162.067 93.8842 162.464 93.8842C162.91 93.8842 163.282 93.7602 163.579 93.5123L164.026 94.5388C163.808 94.7272 163.545 94.8661 163.237 94.9554C162.94 95.0446 162.627 95.0893 162.3 95.0893ZM158.462 88.2903V87.115H163.49V88.2903H158.462ZM168.868 95.0893C168.075 95.0893 167.37 94.9157 166.755 94.5686C166.141 94.2214 165.655 93.7453 165.297 93.1403C164.94 92.5254 164.762 91.8311 164.762 91.0575C164.762 90.274 164.94 89.5797 165.297 88.9747C165.655 88.3696 166.141 87.8985 166.755 87.5613C167.37 87.2142 168.075 87.0406 168.868 87.0406C169.652 87.0406 170.351 87.2142 170.966 87.5613C171.591 87.8985 172.077 88.3696 172.424 88.9747C172.781 89.5698 172.959 90.264 172.959 91.0575C172.959 91.841 172.781 92.5353 172.424 93.1403C172.077 93.7453 171.591 94.2214 170.966 94.5686C170.351 94.9157 169.652 95.0893 168.868 95.0893ZM168.868 93.8396C169.374 93.8396 169.825 93.7255 170.222 93.4974C170.629 93.2693 170.946 92.9469 171.174 92.5304C171.402 92.1039 171.516 91.6129 171.516 91.0575C171.516 90.4922 171.402 90.0062 171.174 89.5995C170.946 89.1829 170.629 88.8606 170.222 88.6325C169.825 88.4044 169.374 88.2903 168.868 88.2903C168.362 88.2903 167.911 88.4044 167.514 88.6325C167.117 88.8606 166.8 89.1829 166.562 89.5995C166.324 90.0062 166.205 90.4922 166.205 91.0575C166.205 91.6129 166.324 92.1039 166.562 92.5304C166.8 92.9469 167.117 93.2693 167.514 93.4974C167.911 93.7255 168.362 93.8396 168.868 93.8396ZM16.5621 113V104.416C16.5621 103.642 16.7853 103.027 17.2316 102.571C17.6878 102.105 18.3325 101.872 19.1657 101.872C19.4731 101.872 19.7657 101.911 20.0434 101.991C20.3311 102.06 20.5741 102.174 20.7724 102.333L20.341 103.419C20.1922 103.3 20.0236 103.211 19.8351 103.151C19.6467 103.082 19.4483 103.047 19.2401 103.047C18.8235 103.047 18.5061 103.166 18.2879 103.404C18.0697 103.632 17.9606 103.974 17.9606 104.431V105.487L17.9904 106.142V113H16.5621ZM15.2232 106.29V105.115H20.2517V106.29H15.2232ZM21.6056 113V105.115H23.0338V113H21.6056ZM22.3197 103.597C22.042 103.597 21.8089 103.508 21.6204 103.33C21.4419 103.151 21.3526 102.933 21.3526 102.675C21.3526 102.407 21.4419 102.184 21.6204 102.006C21.8089 101.827 22.042 101.738 22.3197 101.738C22.5974 101.738 22.8255 101.827 23.004 102.006C23.1925 102.174 23.2867 102.387 23.2867 102.645C23.2867 102.913 23.1974 103.141 23.0189 103.33C22.8404 103.508 22.6073 103.597 22.3197 103.597ZM29.9642 105.041C30.6089 105.041 31.1742 105.165 31.6602 105.413C32.1561 105.66 32.543 106.037 32.8207 106.543C33.0984 107.049 33.2372 107.689 33.2372 108.462V113H31.809V108.626C31.809 107.862 31.6206 107.287 31.2437 106.9C30.8767 106.513 30.356 106.32 29.6815 106.32C29.1757 106.32 28.7343 106.419 28.3574 106.618C27.9806 106.816 27.688 107.109 27.4797 107.495C27.2813 107.882 27.1821 108.363 27.1821 108.938V113H25.7539V105.115H27.1226V107.242L26.8995 106.677C27.1573 106.161 27.5541 105.76 28.0897 105.472C28.6252 105.184 29.2501 105.041 29.9642 105.041ZM35.8804 113V105.115H37.3086V113H35.8804ZM36.5945 103.597C36.3168 103.597 36.0837 103.508 35.8953 103.33C35.7168 103.151 35.6275 102.933 35.6275 102.675C35.6275 102.407 35.7168 102.184 35.8953 102.006C36.0837 101.827 36.3168 101.738 36.5945 101.738C36.8722 101.738 37.1004 101.827 37.2789 102.006C37.4673 102.174 37.5616 102.387 37.5616 102.645C37.5616 102.913 37.4723 103.141 37.2938 103.33C37.1152 103.508 36.8822 103.597 36.5945 103.597ZM42.297 113.089C41.6424 113.089 41.0175 113 40.4224 112.821C39.8372 112.643 39.3761 112.425 39.0388 112.167L39.6339 111.036C39.9711 111.264 40.3877 111.458 40.8836 111.616C41.3795 111.775 41.8854 111.854 42.4011 111.854C43.0656 111.854 43.5417 111.76 43.8293 111.572C44.1269 111.383 44.2757 111.12 44.2757 110.783C44.2757 110.535 44.1864 110.342 44.0079 110.203C43.8293 110.064 43.5913 109.96 43.2938 109.891C43.0061 109.821 42.6838 109.762 42.3267 109.712C41.9697 109.653 41.6126 109.583 41.2556 109.504C40.8985 109.415 40.5712 109.296 40.2737 109.147C39.9761 108.988 39.7381 108.775 39.5595 108.507C39.381 108.229 39.2917 107.862 39.2917 107.406C39.2917 106.93 39.4256 106.513 39.6934 106.156C39.9612 105.799 40.3381 105.527 40.8241 105.338C41.32 105.14 41.9052 105.041 42.5796 105.041C43.0954 105.041 43.6161 105.105 44.1418 105.234C44.6774 105.353 45.1138 105.527 45.451 105.755L44.841 106.885C44.484 106.647 44.112 106.484 43.7252 106.394C43.3384 106.305 42.9516 106.261 42.5648 106.261C41.9399 106.261 41.4738 106.365 41.1663 106.573C40.8588 106.771 40.7051 107.029 40.7051 107.347C40.7051 107.614 40.7944 107.823 40.9729 107.971C41.1613 108.11 41.3994 108.219 41.687 108.299C41.9846 108.378 42.3119 108.448 42.6689 108.507C43.026 108.557 43.383 108.626 43.7401 108.715C44.0971 108.795 44.4195 108.909 44.7071 109.057C45.0047 109.206 45.2427 109.415 45.4212 109.682C45.6097 109.95 45.7039 110.307 45.7039 110.754C45.7039 111.23 45.565 111.641 45.2873 111.988C45.0096 112.335 44.6178 112.608 44.112 112.807C43.6062 112.995 43.0012 113.089 42.297 113.089ZM51.6991 105.041C52.3438 105.041 52.9092 105.165 53.3952 105.413C53.8911 105.66 54.2779 106.037 54.5556 106.543C54.8333 107.049 54.9722 107.689 54.9722 108.462V113H53.5439V108.626C53.5439 107.862 53.3555 107.287 52.9786 106.9C52.6116 106.513 52.0909 106.32 51.4165 106.32C50.9106 106.32 50.4693 106.419 50.0924 106.618C49.7155 106.816 49.4229 107.109 49.2146 107.495C49.0162 107.882 48.9171 108.363 48.9171 108.938V113H47.4888V101.961H48.9171V107.242L48.6344 106.677C48.8923 106.161 49.289 105.76 49.8246 105.472C50.3602 105.184 50.985 105.041 51.6991 105.041Z" fill="black"/>
<circle cx="43.5" cy="23.5" r="23.5" fill="#E61733"/>
<path d="M39.5956 30V28.105L44.4683 23.503C44.8534 23.154 45.1361 22.8412 45.3166 22.5645C45.497 22.2878 45.6174 22.0351 45.6775 21.8065C45.7497 21.5779 45.7858 21.3674 45.7858 21.1748C45.7858 20.6695 45.6113 20.2845 45.2624 20.0198C44.9255 19.7431 44.4262 19.6047 43.7645 19.6047C43.2351 19.6047 42.7418 19.707 42.2846 19.9115C41.8394 20.1161 41.4605 20.4349 41.1476 20.868L39.018 19.4964C39.4993 18.7746 40.1731 18.2031 41.0393 17.7819C41.9056 17.3608 42.9042 17.1503 44.0352 17.1503C44.9737 17.1503 45.7918 17.3067 46.4896 17.6195C47.1995 17.9203 47.7469 18.3474 48.132 18.9009C48.529 19.4543 48.7275 20.1161 48.7275 20.8861C48.7275 21.2952 48.6734 21.7042 48.5651 22.1133C48.4688 22.5104 48.2643 22.9315 47.9515 23.3766C47.6507 23.8218 47.2055 24.3211 46.616 24.8746L42.5734 28.6825L42.0139 27.6178H49.1426V30H39.5956Z" fill="white"/>
<path d="M284.998 79.6639C284.612 79.2776 284.032 79.0844 283.453 79.2776C279.203 80.2434 274.953 79.2776 271.476 76.7663C270.897 76.38 269.931 76.38 269.351 76.7663C265.681 79.2776 261.431 80.2434 257.181 79.2776C256.215 79.0844 255.056 79.8571 254.863 80.8229C254.863 81.0161 254.863 81.0161 254.863 81.2093V95.6972C254.863 101.299 257.568 106.515 262.204 109.799L269.351 114.821C269.931 115.208 270.897 115.208 271.669 114.821L278.817 109.799C283.453 106.515 286.157 101.299 286.157 95.6972V81.2093C285.771 80.6298 285.578 80.0503 284.998 79.6639ZM274.181 97.8221H272.249V99.7538C272.249 100.913 271.476 101.686 270.317 101.686C269.158 101.686 268.385 100.913 268.385 99.7538V97.8221H266.454C265.295 97.8221 264.522 97.0494 264.522 95.8904C264.522 94.7314 265.295 93.9587 266.454 93.9587H268.385V92.0269C268.385 90.8679 269.158 90.0952 270.317 90.0952C271.476 90.0952 272.249 90.8679 272.249 92.0269V93.9587H274.181C275.34 93.9587 276.112 94.7314 276.112 95.8904C276.112 97.0494 275.34 97.8221 274.181 97.8221Z" fill="white"/>
<path d="M281.135 77.1873C280.749 76.801 280.169 76.6078 279.59 76.801C275.34 77.7669 271.09 76.801 267.613 74.2898C267.033 73.9034 266.067 73.9034 265.488 74.2898C261.818 76.801 257.568 77.7669 253.318 76.801C252.352 76.6078 251.193 77.3805 251 78.3464C251 78.5396 251 78.5396 251 78.7327V93.2207C251 98.8227 253.704 104.038 258.341 107.322L265.488 112.345C266.067 112.731 267.033 112.731 267.806 112.345L274.953 107.322C279.59 104.038 282.294 98.8227 282.294 93.2207V78.7327C281.908 78.1532 281.714 77.5737 281.135 77.1873ZM270.317 95.3456H268.386V97.2773C268.386 98.4363 267.613 99.209 266.454 99.209C265.295 99.209 264.522 98.4363 264.522 97.2773V95.3456H262.59C261.431 95.3456 260.659 94.5729 260.659 93.4138C260.659 92.2548 261.431 91.4821 262.59 91.4821H264.522V89.5504C264.522 88.3913 265.295 87.6187 266.454 87.6187C267.613 87.6187 268.386 88.3913 268.386 89.5504V91.4821H270.317C271.476 91.4821 272.249 92.2548 272.249 93.4138C272.249 94.5729 271.476 95.3456 270.317 95.3456Z" fill="#3130EE"/>
<rect x="257.538" y="80.9336" width="17.8313" height="20.506" fill="#3130EE"/>
<g clip-path="url(#clip0_1464_411)">
<path d="M264.161 96.4928C263.856 96.4928 263.551 96.3773 263.317 96.1435L258.779 91.6054C258.314 91.1406 258.314 90.3857 258.779 89.921C259.244 89.4562 259.999 89.4562 260.464 89.921L264.161 93.6183L271.553 86.2236C272.018 85.7588 272.772 85.7588 273.237 86.2236C273.702 86.6883 273.702 87.4432 273.237 87.908L265.002 96.1435C264.771 96.3744 264.466 96.4928 264.161 96.4928Z" fill="white"/>
</g>
<defs>
<clipPath id="clip0_1464_411">
<rect width="15.1566" height="15.1566" fill="white" transform="translate(258.43 83.6094)"/>
</clipPath>
</defs>
</svg>
