<svg width="312" height="96" viewBox="0 0 312 96" fill="none" xmlns="http://www.w3.org/2000/svg">
<g clip-path="url(#clip0_779_2)">
<mask id="mask0_779_2" style="mask-type:luminance" maskUnits="userSpaceOnUse" x="0" y="6" width="312" height="96">
<path d="M312 6H0V102H312V6Z" fill="white"/>
</mask>
<g mask="url(#mask0_779_2)">
<mask id="mask1_779_2" style="mask-type:luminance" maskUnits="userSpaceOnUse" x="0" y="6" width="312" height="96">
<path d="M312 6H0V102H312V6Z" fill="white"/>
</mask>
<g mask="url(#mask1_779_2)">
<mask id="mask2_779_2" style="mask-type:luminance" maskUnits="userSpaceOnUse" x="0" y="6" width="312" height="96">
<path d="M293.724 6H18.2759C8.1824 6 0 14.1824 0 24.2759V83.7241C0 93.8176 8.1824 102 18.2759 102H293.724C303.818 102 312 93.8176 312 83.7241V24.2759C312 14.1824 303.818 6 293.724 6Z" fill="white"/>
</mask>
<g mask="url(#mask2_779_2)">
<path d="M293.724 6H18.2759C8.1824 6 0 14.1824 0 24.2759V83.7241C0 93.8176 8.1824 102 18.2759 102H293.724C303.818 102 312 93.8176 312 83.7241V24.2759C312 14.1824 303.818 6 293.724 6Z" fill="white"/>
<path d="M11.7315 -7.71484H298.474C314.887 -7.71484 328.137 5.0471 328.137 20.8567V85.6186C328.137 101.428 314.887 114.19 298.474 114.19H11.7315C-4.68209 114.19 -17.9316 101.428 -17.9316 85.6186V20.8567C-17.9316 5.0471 -4.68209 -7.71484 11.7315 -7.71484Z" fill="url(#paint0_linear_779_2)"/>
<path d="M11.7315 -7.71484H298.474C314.887 -7.71484 328.137 5.0471 328.137 20.8567V85.6186C328.137 101.428 314.887 114.19 298.474 114.19H11.7315C-4.68209 114.19 -17.9316 101.428 -17.9316 85.6186V20.8567C-17.9316 5.0471 -4.68209 -7.71484 11.7315 -7.71484Z" fill="url(#paint1_linear_779_2)"/>
<path d="M0 -3.14258H116.552L91.4483 102H0V-3.14258Z" fill="white"/>
</g>
</g>
</g>
<path d="M133.385 47V43.5224H137.795C138.87 43.5224 139.811 43.3124 140.617 42.8924C141.424 42.4556 142.045 41.8256 142.482 41.0024C142.919 40.1792 143.137 39.2048 143.137 38.0792C143.137 36.9536 142.91 35.9876 142.457 35.1812C142.02 34.3748 141.398 33.7532 140.592 33.3164C139.802 32.8796 138.87 32.6612 137.795 32.6612H133.259V29.2088H137.845C139.189 29.2088 140.424 29.4272 141.55 29.864C142.692 30.284 143.683 30.8972 144.523 31.7036C145.38 32.4932 146.035 33.434 146.489 34.526C146.959 35.6012 147.194 36.794 147.194 38.1044C147.194 39.398 146.959 40.5908 146.489 41.6828C146.035 42.7748 145.388 43.7156 144.548 44.5052C143.708 45.2948 142.717 45.908 141.575 46.3448C140.449 46.7816 139.223 47 137.896 47H133.385ZM130.714 47V29.2088H134.67V47H130.714ZM155.256 47.2772C153.996 47.2772 152.854 47 151.829 46.4456C150.821 45.8744 150.023 45.1016 149.435 44.1272C148.847 43.1528 148.553 42.0608 148.553 40.8512C148.553 39.6416 148.847 38.558 149.435 37.6004C150.023 36.6428 150.821 35.8868 151.829 35.3324C152.837 34.7612 153.979 34.4756 155.256 34.4756C156.533 34.4756 157.675 34.7528 158.683 35.3072C159.691 35.8616 160.489 36.626 161.077 37.6004C161.665 38.558 161.959 39.6416 161.959 40.8512C161.959 42.0608 161.665 43.1528 161.077 44.1272C160.489 45.1016 159.691 45.8744 158.683 46.4456C157.675 47 156.533 47.2772 155.256 47.2772ZM155.256 43.7744C155.81 43.7744 156.298 43.6568 156.718 43.4216C157.138 43.1696 157.457 42.8252 157.675 42.3884C157.91 41.9348 158.028 41.4224 158.028 40.8512C158.028 40.28 157.91 39.7844 157.675 39.3644C157.44 38.9276 157.112 38.5916 156.692 38.3564C156.289 38.1044 155.81 37.9784 155.256 37.9784C154.718 37.9784 154.24 38.1044 153.82 38.3564C153.4 38.5916 153.072 38.9276 152.837 39.3644C152.602 39.8012 152.484 40.3052 152.484 40.8764C152.484 41.4308 152.602 41.9348 152.837 42.3884C153.072 42.8252 153.4 43.1696 153.82 43.4216C154.24 43.6568 154.718 43.7744 155.256 43.7744ZM166.631 47L162.398 34.7528H166.178L168.799 43.6484L167.69 43.6736L170.588 34.7528H173.713L176.636 43.6736L175.502 43.6484L178.148 34.7528H181.928L177.694 47H174.544L171.697 38.5328H172.654L169.756 47H166.631ZM191.508 47V40.0196C191.508 39.3812 191.306 38.8688 190.903 38.4824C190.517 38.0792 190.021 37.8776 189.416 37.8776C188.996 37.8776 188.627 37.97 188.307 38.1548C187.988 38.3228 187.736 38.5748 187.551 38.9108C187.367 39.23 187.274 39.5996 187.274 40.0196L185.787 39.2888C185.787 38.3312 185.997 37.4912 186.417 36.7688C186.837 36.0464 187.417 35.492 188.156 35.1056C188.912 34.7024 189.761 34.5008 190.701 34.5008C191.609 34.5008 192.407 34.7192 193.095 35.156C193.801 35.576 194.355 36.1388 194.759 36.8444C195.162 37.55 195.363 38.3228 195.363 39.1628V47H191.508ZM183.419 47V34.7528H187.274V47H183.419ZM197.84 47V28.7048H201.695V47H197.84ZM210.307 47.2772C209.047 47.2772 207.905 47 206.88 46.4456C205.872 45.8744 205.074 45.1016 204.486 44.1272C203.898 43.1528 203.604 42.0608 203.604 40.8512C203.604 39.6416 203.898 38.558 204.486 37.6004C205.074 36.6428 205.872 35.8868 206.88 35.3324C207.888 34.7612 209.03 34.4756 210.307 34.4756C211.584 34.4756 212.726 34.7528 213.734 35.3072C214.742 35.8616 215.54 36.626 216.128 37.6004C216.716 38.558 217.01 39.6416 217.01 40.8512C217.01 42.0608 216.716 43.1528 216.128 44.1272C215.54 45.1016 214.742 45.8744 213.734 46.4456C212.726 47 211.584 47.2772 210.307 47.2772ZM210.307 43.7744C210.862 43.7744 211.349 43.6568 211.769 43.4216C212.189 43.1696 212.508 42.8252 212.726 42.3884C212.962 41.9348 213.079 41.4224 213.079 40.8512C213.079 40.28 212.962 39.7844 212.726 39.3644C212.491 38.9276 212.164 38.5916 211.744 38.3564C211.34 38.1044 210.862 37.9784 210.307 37.9784C209.77 37.9784 209.291 38.1044 208.871 38.3564C208.451 38.5916 208.123 38.9276 207.888 39.3644C207.653 39.8012 207.535 40.3052 207.535 40.8764C207.535 41.4308 207.653 41.9348 207.888 42.3884C208.123 42.8252 208.451 43.1696 208.871 43.4216C209.291 43.6568 209.77 43.7744 210.307 43.7744ZM224.046 47.252C222.92 47.252 221.912 46.9748 221.022 46.4204C220.148 45.866 219.451 45.11 218.93 44.1524C218.426 43.1948 218.174 42.1028 218.174 40.8764C218.174 39.65 218.426 38.558 218.93 37.6004C219.451 36.6428 220.148 35.8868 221.022 35.3324C221.912 34.778 222.92 34.5008 224.046 34.5008C224.869 34.5008 225.608 34.6604 226.263 34.9796C226.935 35.2988 227.481 35.744 227.901 36.3152C228.321 36.8696 228.556 37.508 228.607 38.2304V43.5224C228.556 44.2448 228.321 44.8916 227.901 45.4628C227.498 46.0172 226.96 46.454 226.288 46.7732C225.616 47.0924 224.869 47.252 224.046 47.252ZM224.827 43.7744C225.65 43.7744 226.314 43.5056 226.818 42.968C227.322 42.4136 227.574 41.7164 227.574 40.8764C227.574 40.3052 227.456 39.8012 227.221 39.3644C227.002 38.9276 226.683 38.5916 226.263 38.3564C225.86 38.1044 225.39 37.9784 224.852 37.9784C224.314 37.9784 223.836 38.1044 223.416 38.3564C223.012 38.5916 222.685 38.9276 222.433 39.3644C222.198 39.8012 222.08 40.3052 222.08 40.8764C222.08 41.4308 222.198 41.9264 222.433 42.3632C222.668 42.8 222.996 43.1444 223.416 43.3964C223.836 43.6484 224.306 43.7744 224.827 43.7744ZM227.422 47V43.6988L228.002 40.7252L227.422 37.7516V34.7528H231.202V47H227.422ZM239.133 47.252C237.974 47.252 236.941 46.9748 236.034 46.4204C235.143 45.866 234.438 45.11 233.917 44.1524C233.413 43.1948 233.161 42.1028 233.161 40.8764C233.161 39.65 233.413 38.558 233.917 37.6004C234.438 36.6428 235.143 35.8868 236.034 35.3324C236.941 34.778 237.974 34.5008 239.133 34.5008C239.973 34.5008 240.729 34.6604 241.401 34.9796C242.09 35.2988 242.653 35.744 243.09 36.3152C243.543 36.8696 243.795 37.508 243.846 38.2304V43.3964C243.795 44.1188 243.552 44.774 243.115 45.362C242.678 45.9332 242.115 46.3952 241.427 46.748C240.738 47.084 239.973 47.252 239.133 47.252ZM239.814 43.7744C240.368 43.7744 240.847 43.6568 241.25 43.4216C241.653 43.1696 241.973 42.8252 242.208 42.3884C242.443 41.9516 242.561 41.4476 242.561 40.8764C242.561 40.3052 242.443 39.8096 242.208 39.3896C241.989 38.9528 241.67 38.6084 241.25 38.3564C240.847 38.1044 240.377 37.9784 239.839 37.9784C239.301 37.9784 238.823 38.1044 238.403 38.3564C237.999 38.6084 237.672 38.9528 237.42 39.3896C237.185 39.8264 237.067 40.322 237.067 40.8764C237.067 41.4308 237.185 41.9264 237.42 42.3632C237.655 42.8 237.983 43.1444 238.403 43.3964C238.823 43.6484 239.293 43.7744 239.814 43.7744ZM246.189 47H242.409V43.6988L242.989 40.7252L242.334 37.7516V28.7048H246.189V47ZM254.056 47V29.2088H258.012V47H254.056ZM257.08 40.0196V36.6176H265.975V40.0196H257.08ZM257.08 32.6108V29.2088H266.379V32.6108H257.08ZM274.07 47.2772C272.81 47.2772 271.668 47 270.643 46.4456C269.635 45.8744 268.837 45.1016 268.249 44.1272C267.661 43.1528 267.367 42.0608 267.367 40.8512C267.367 39.6416 267.661 38.558 268.249 37.6004C268.837 36.6428 269.635 35.8868 270.643 35.3324C271.651 34.7612 272.793 34.4756 274.07 34.4756C275.347 34.4756 276.489 34.7528 277.497 35.3072C278.505 35.8616 279.303 36.626 279.891 37.6004C280.479 38.558 280.773 39.6416 280.773 40.8512C280.773 42.0608 280.479 43.1528 279.891 44.1272C279.303 45.1016 278.505 45.8744 277.497 46.4456C276.489 47 275.347 47.2772 274.07 47.2772ZM274.07 43.7744C274.625 43.7744 275.112 43.6568 275.532 43.4216C275.952 43.1696 276.271 42.8252 276.489 42.3884C276.725 41.9348 276.842 41.4224 276.842 40.8512C276.842 40.28 276.725 39.7844 276.489 39.3644C276.254 38.9276 275.927 38.5916 275.507 38.3564C275.103 38.1044 274.625 37.9784 274.07 37.9784C273.533 37.9784 273.054 38.1044 272.634 38.3564C272.214 38.5916 271.886 38.9276 271.651 39.3644C271.416 39.8012 271.298 40.3052 271.298 40.8764C271.298 41.4308 271.416 41.9348 271.651 42.3884C271.886 42.8252 272.214 43.1696 272.634 43.4216C273.054 43.6568 273.533 43.7744 274.07 43.7744ZM282.693 47V34.7528H286.548V47H282.693ZM286.548 40.2716L284.936 39.0116C285.255 37.5836 285.792 36.4748 286.548 35.6852C287.304 34.8956 288.354 34.5008 289.698 34.5008C290.286 34.5008 290.799 34.5932 291.236 34.778C291.689 34.946 292.084 35.2148 292.42 35.5844L290.127 38.4824C289.959 38.2976 289.749 38.1548 289.497 38.054C289.245 37.9532 288.959 37.9028 288.64 37.9028C288.002 37.9028 287.489 38.1044 287.103 38.5076C286.733 38.894 286.548 39.482 286.548 40.2716ZM130.361 79V66.7528H134.216V79H130.361ZM132.301 65.0644C131.696 65.0644 131.192 64.8628 130.789 64.4596C130.403 64.0396 130.21 63.5356 130.21 62.9476C130.21 62.3428 130.403 61.8388 130.789 61.4356C131.192 61.0324 131.696 60.8308 132.301 60.8308C132.906 60.8308 133.402 61.0324 133.788 61.4356C134.174 61.8388 134.368 62.3428 134.368 62.9476C134.368 63.5356 134.174 64.0396 133.788 64.4596C133.402 64.8628 132.906 65.0644 132.301 65.0644ZM142.828 79.2772C141.568 79.2772 140.426 79 139.401 78.4456C138.393 77.8744 137.595 77.1016 137.007 76.1272C136.419 75.1528 136.125 74.0608 136.125 72.8512C136.125 71.6416 136.419 70.558 137.007 69.6004C137.595 68.6428 138.393 67.8868 139.401 67.3324C140.409 66.7612 141.552 66.4756 142.828 66.4756C144.105 66.4756 145.248 66.7528 146.256 67.3072C147.264 67.8616 148.062 68.626 148.65 69.6004C149.238 70.558 149.532 71.6416 149.532 72.8512C149.532 74.0608 149.238 75.1528 148.65 76.1272C148.062 77.1016 147.264 77.8744 146.256 78.4456C145.248 79 144.105 79.2772 142.828 79.2772ZM142.828 75.7744C143.383 75.7744 143.87 75.6568 144.29 75.4216C144.71 75.1696 145.029 74.8252 145.248 74.3884C145.483 73.9348 145.6 73.4224 145.6 72.8512C145.6 72.28 145.483 71.7844 145.248 71.3644C145.012 70.9276 144.685 70.5916 144.265 70.3564C143.862 70.1044 143.383 69.9784 142.828 69.9784C142.291 69.9784 141.812 70.1044 141.392 70.3564C140.972 70.5916 140.644 70.9276 140.409 71.3644C140.174 71.8012 140.056 72.3052 140.056 72.8764C140.056 73.4308 140.174 73.9348 140.409 74.3884C140.644 74.8252 140.972 75.1696 141.392 75.4216C141.812 75.6568 142.291 75.7744 142.828 75.7744ZM155.911 79.3024C155.189 79.3024 154.475 79.21 153.769 79.0252C153.081 78.8404 152.434 78.58 151.829 78.244C151.241 77.8912 150.737 77.488 150.317 77.0344L152.509 74.8168C152.913 75.2536 153.391 75.598 153.946 75.85C154.5 76.0852 155.105 76.2028 155.76 76.2028C156.214 76.2028 156.558 76.1356 156.793 76.0012C157.045 75.8668 157.171 75.682 157.171 75.4468C157.171 75.1444 157.02 74.9176 156.718 74.7664C156.432 74.5984 156.063 74.4556 155.609 74.338C155.155 74.2036 154.677 74.0608 154.173 73.9096C153.669 73.7584 153.19 73.5484 152.736 73.2796C152.283 73.0108 151.913 72.6412 151.627 72.1708C151.342 71.6836 151.199 71.0704 151.199 70.3312C151.199 69.5416 151.401 68.8612 151.804 68.29C152.207 67.702 152.778 67.24 153.517 66.904C154.257 66.568 155.122 66.4 156.113 66.4C157.155 66.4 158.112 66.5848 158.986 66.9544C159.876 67.3072 160.599 67.8364 161.153 68.542L158.961 70.7596C158.574 70.306 158.137 69.9868 157.65 69.802C157.18 69.6172 156.718 69.5248 156.264 69.5248C155.827 69.5248 155.5 69.592 155.281 69.7264C155.063 69.844 154.954 70.0204 154.954 70.2556C154.954 70.5076 155.097 70.7092 155.382 70.8604C155.668 71.0116 156.037 71.146 156.491 71.2636C156.945 71.3812 157.423 71.524 157.927 71.692C158.431 71.86 158.91 72.0868 159.364 72.3724C159.817 72.658 160.187 73.0444 160.473 73.5316C160.758 74.002 160.901 74.6236 160.901 75.3964C160.901 76.5892 160.447 77.5384 159.54 78.244C158.65 78.9496 157.44 79.3024 155.911 79.3024ZM175.301 79.2772C173.84 79.2772 172.546 78.9664 171.42 78.3448C170.312 77.7232 169.438 76.8664 168.8 75.7744C168.178 74.6656 167.867 73.4056 167.867 71.9944V61.2088H171.849V72.2212C171.849 72.9268 172 73.54 172.302 74.0608C172.605 74.5816 173.016 74.9848 173.537 75.2704C174.075 75.5392 174.663 75.6736 175.301 75.6736C175.973 75.6736 176.561 75.5392 177.065 75.2704C177.569 74.9848 177.964 74.59 178.25 74.086C178.552 73.5652 178.703 72.952 178.703 72.2464V61.2088H182.685V72.0196C182.685 73.4308 182.374 74.6824 181.752 75.7744C181.131 76.8664 180.266 77.7232 179.157 78.3448C178.048 78.9664 176.763 79.2772 175.301 79.2772ZM189.946 79.3024C189.224 79.3024 188.51 79.21 187.804 79.0252C187.115 78.8404 186.469 78.58 185.864 78.244C185.276 77.8912 184.772 77.488 184.352 77.0344L186.544 74.8168C186.947 75.2536 187.426 75.598 187.981 75.85C188.535 76.0852 189.14 76.2028 189.795 76.2028C190.249 76.2028 190.593 76.1356 190.828 76.0012C191.08 75.8668 191.206 75.682 191.206 75.4468C191.206 75.1444 191.055 74.9176 190.753 74.7664C190.467 74.5984 190.097 74.4556 189.644 74.338C189.19 74.2036 188.711 74.0608 188.207 73.9096C187.703 73.7584 187.225 73.5484 186.771 73.2796C186.317 73.0108 185.948 72.6412 185.662 72.1708C185.377 71.6836 185.234 71.0704 185.234 70.3312C185.234 69.5416 185.435 68.8612 185.839 68.29C186.242 67.702 186.813 67.24 187.552 66.904C188.291 66.568 189.157 66.4 190.148 66.4C191.189 66.4 192.147 66.5848 193.021 66.9544C193.911 67.3072 194.633 67.8364 195.188 68.542L192.995 70.7596C192.609 70.306 192.172 69.9868 191.685 69.802C191.215 69.6172 190.753 69.5248 190.299 69.5248C189.862 69.5248 189.535 69.592 189.316 69.7264C189.098 69.844 188.989 70.0204 188.989 70.2556C188.989 70.5076 189.131 70.7092 189.417 70.8604C189.703 71.0116 190.072 71.146 190.526 71.2636C190.979 71.3812 191.458 71.524 191.962 71.692C192.466 71.86 192.945 72.0868 193.399 72.3724C193.852 72.658 194.222 73.0444 194.507 73.5316C194.793 74.002 194.936 74.6236 194.936 75.3964C194.936 76.5892 194.482 77.5384 193.575 78.244C192.685 78.9496 191.475 79.3024 189.946 79.3024ZM203.076 79.2772C201.748 79.2772 200.564 79.0084 199.522 78.4708C198.498 77.9164 197.691 77.152 197.103 76.1776C196.515 75.2032 196.221 74.1028 196.221 72.8764C196.221 71.65 196.507 70.558 197.078 69.6004C197.666 68.626 198.456 67.8616 199.447 67.3072C200.438 66.7528 201.555 66.4756 202.798 66.4756C204.008 66.4756 205.075 66.736 205.999 67.2568C206.923 67.7776 207.645 68.5 208.166 69.424C208.704 70.348 208.972 71.4064 208.972 72.5992C208.972 72.8176 208.956 73.0528 208.922 73.3048C208.905 73.54 208.863 73.8172 208.796 74.1364L198.237 74.1616V71.5156L207.158 71.4904L205.495 72.5992C205.478 71.8936 205.369 71.314 205.167 70.8604C204.966 70.39 204.663 70.0372 204.26 69.802C203.874 69.55 203.395 69.424 202.824 69.424C202.219 69.424 201.69 69.5668 201.236 69.8524C200.799 70.1212 200.455 70.5076 200.203 71.0116C199.968 71.5156 199.85 72.1288 199.85 72.8512C199.85 73.5736 199.976 74.1952 200.228 74.716C200.497 75.22 200.866 75.6148 201.337 75.9004C201.824 76.1692 202.395 76.3036 203.05 76.3036C203.655 76.3036 204.201 76.2028 204.688 76.0012C205.176 75.7828 205.604 75.4636 205.974 75.0436L208.09 77.1604C207.486 77.866 206.755 78.3952 205.898 78.748C205.041 79.1008 204.1 79.2772 203.076 79.2772ZM210.833 79V66.7528H214.689V79H210.833ZM214.689 72.2716L213.076 71.0116C213.395 69.5836 213.933 68.4748 214.689 67.6852C215.445 66.8956 216.495 66.5008 217.839 66.5008C218.427 66.5008 218.939 66.5932 219.376 66.778C219.83 66.946 220.225 67.2148 220.561 67.5844L218.267 70.4824C218.099 70.2976 217.889 70.1548 217.637 70.054C217.385 69.9532 217.1 69.9028 216.781 69.9028C216.142 69.9028 215.63 70.1044 215.243 70.5076C214.874 70.894 214.689 71.482 214.689 72.2716Z" fill="white"/>
<path d="M73.7857 19H28.2143C24.7835 19 22 21.7835 22 25.2143V70.7857C22 74.2165 24.7835 77 28.2143 77H73.7857C77.2165 77 80 74.2165 80 70.7857V25.2143C80 21.7835 77.2165 19 73.7857 19ZM38.442 64.6362C37.7299 65.879 36.1375 66.2933 34.9076 65.5812C33.6647 64.8692 33.2504 63.2768 33.9625 62.0469L35.8138 58.8491C37.8982 58.2147 39.6071 58.7067 40.9406 60.325L38.442 64.6362ZM56.4246 57.658H32.875C31.4509 57.658 30.2857 56.4929 30.2857 55.0688C30.2857 53.6446 31.4509 52.4795 32.875 52.4795H39.4777L47.9446 37.8241L45.2906 33.2411C44.5786 31.9982 45.0058 30.4187 46.2357 29.7067C47.4786 28.9946 49.058 29.4219 49.7701 30.6518L50.9223 32.6455L52.0746 30.6518C52.7866 29.4089 54.379 28.9946 55.6089 29.7067C56.8518 30.4187 57.2661 32.0112 56.554 33.2411L45.446 52.4795H53.4857C56.1009 52.4795 57.5638 55.5478 56.4246 57.658ZM69.125 57.658H65.3705L67.908 62.0469C68.6201 63.2897 68.1929 64.8692 66.9629 65.5812C65.7201 66.2933 64.1406 65.8661 63.4286 64.6362C59.1692 57.2696 55.9844 51.7286 53.8482 48.0518C51.6862 44.2973 53.2268 40.5429 54.7674 39.2741C56.4634 42.2129 59.0009 46.6147 62.3929 52.4795H69.125C70.5491 52.4795 71.7143 53.6446 71.7143 55.0688C71.7143 56.5058 70.5491 57.658 69.125 57.658Z" fill="url(#paint2_linear_779_2)"/>
</g>
<defs>
<linearGradient id="paint0_linear_779_2" x1="199.541" y1="128.477" x2="80.011" y2="-89.662" gradientUnits="userSpaceOnUse">
<stop offset="0.0543334" stop-color="#0964EC"/>
<stop offset="1" stop-color="#00C2FF"/>
</linearGradient>
<linearGradient id="paint1_linear_779_2" x1="199.541" y1="128.477" x2="80.011" y2="-89.662" gradientUnits="userSpaceOnUse">
<stop offset="0.0543334" stop-color="#0964EC"/>
<stop offset="1" stop-color="#00C2FF"/>
</linearGradient>
<linearGradient id="paint2_linear_779_2" x1="51" y1="19" x2="51" y2="77" gradientUnits="userSpaceOnUse">
<stop stop-color="#0680F2"/>
<stop offset="1" stop-color="#0964EC"/>
</linearGradient>
<clipPath id="clip0_779_2">
<rect width="312" height="96" fill="white"/>
</clipPath>
</defs>
</svg>
