<svg width="312" height="96" viewBox="0 0 312 96" fill="none" xmlns="http://www.w3.org/2000/svg">
<g clip-path="url(#clip0_207_15)">
<rect width="312" height="96" rx="18.2759" fill="white"/>
<path d="M11.732 -13.7144H298.475C314.888 -13.7144 328.138 -0.952449 328.138 14.8571V79.619C328.138 95.4285 314.888 108.19 298.475 108.19H11.732C-4.6816 108.19 -17.9311 95.4285 -17.9311 79.619V14.8571C-17.9311 -0.952449 -4.6816 -13.7144 11.732 -13.7144Z" fill="url(#paint0_linear_207_15)"/>
<path d="M11.732 -13.7144H298.475C314.888 -13.7144 328.138 -0.952449 328.138 14.8571V79.619C328.138 95.4285 314.888 108.19 298.475 108.19H11.732C-4.6816 108.19 -17.9311 95.4285 -17.9311 79.619V14.8571C-17.9311 -0.952449 -4.6816 -13.7144 11.732 -13.7144Z" fill="url(#paint1_linear_207_15)"/>
<path d="M0 -9.14282H116.552L91.4483 96H0V-9.14282Z" fill="white"/>
<path d="M35.5948 63.4851C35.5948 65.0081 36.8132 66.3788 38.4885 66.3788H41.6868V74.4506C41.6868 76.4305 43.3621 78.1058 45.342 78.1058C47.3218 78.1058 48.9971 76.4305 48.9971 74.4506V66.3788H54.6322V74.4506C54.6322 76.4305 56.3075 78.1058 58.2874 78.1058C60.2672 78.1058 61.9425 76.4305 61.9425 74.4506V66.3788H65.1408C66.6638 66.3788 68.0345 65.1604 68.0345 63.4851V36.9851H35.5948V63.4851ZM59.5057 23.2782L62.5517 18.8615C62.704 18.5569 62.704 18.2523 62.3994 18.1C62.0948 17.9477 61.7902 17.9477 61.6379 18.2523L58.592 22.8213C56.6121 22.0598 54.1753 21.6029 51.8908 21.6029C49.454 21.6029 47.1695 22.0598 45.1897 22.8213L42.1437 18.2523C41.9914 17.9477 41.6868 17.9477 41.3822 18.1C41.0776 18.2523 41.0776 18.5569 41.2299 18.8615L44.2759 23.2782C39.5546 25.5627 36.204 29.6748 35.7471 34.7006H68.3391C67.5776 29.6748 64.227 25.5627 59.5057 23.2782ZM44.8851 30.1316C44.5805 30.1316 44.1236 29.9793 43.819 29.827C43.5144 29.6748 43.3621 29.3702 43.2098 29.0656C43.0575 28.761 43.0575 28.3041 43.0575 27.9995C43.0575 27.6949 43.3621 27.3903 43.5144 27.0857C43.819 26.7811 44.1236 26.6288 44.4282 26.6288C44.7328 26.6288 45.1897 26.6288 45.4943 26.7811C45.7989 26.9334 46.1035 27.0857 46.2557 27.3903C46.408 27.6949 46.5603 27.9995 46.5603 28.4564C46.5603 28.9133 46.408 29.3702 46.1034 29.6747C45.7988 29.9793 45.342 30.1316 44.8851 30.1316ZM58.8966 30.1316C58.592 30.1316 58.1351 29.9793 57.8305 29.827C57.5259 29.6748 57.3736 29.3702 57.2213 29.0656C57.069 28.761 57.069 28.3041 57.069 27.9995C57.069 27.6949 57.3736 27.3903 57.5259 27.0857C57.8305 26.7811 58.1351 26.6288 58.4397 26.6288C58.7443 26.6288 59.2011 26.6288 59.5057 26.7811C59.8103 26.9334 60.1149 27.0857 60.2672 27.3903C60.4195 27.6949 60.5718 27.9995 60.5718 28.4564C60.5718 28.9133 60.4195 29.3702 60.1149 29.6747C59.8103 29.9793 59.3535 30.1316 58.8966 30.1316ZM73.8218 36.9851C71.842 36.9851 70.1667 38.6604 70.1667 40.6403V55.1087C70.1667 57.0885 71.842 58.7638 73.8218 58.7638C75.8017 58.7638 77.477 57.0885 77.477 55.1087V40.6403C77.477 38.5081 75.8017 36.9851 73.8218 36.9851ZM29.6552 36.9851C27.6753 36.9851 26 38.6604 26 40.6403V55.1087C26 57.0885 27.6753 58.7638 29.6552 58.7638C31.6351 58.7638 33.3103 57.0885 33.3103 55.1087V40.6403C33.3103 38.5081 31.7874 36.9851 29.6552 36.9851Z" fill="url(#paint2_linear_207_15)"/>
<path d="M148.106 61.0087C148.106 62.0748 147.954 62.8363 147.497 63.7501C147.04 64.5115 146.279 65.273 145.365 65.7299C144.451 66.1868 143.233 66.4914 141.862 66.4914H139.273V72.5834H135.009V55.5259H141.71C143.08 55.5259 144.299 55.8305 145.213 56.2874C146.126 56.7443 146.888 57.3535 147.345 58.2673C147.802 59.0288 148.106 59.9426 148.106 61.0087ZM141.405 63.1409C142.167 63.1409 142.776 62.9886 143.233 62.5317C143.69 62.2271 143.842 61.6179 143.842 61.0087C143.842 60.3995 143.69 59.7903 143.233 59.4857C142.776 59.1811 142.319 58.8765 141.405 58.8765H139.121V63.1409H141.405ZM154.35 69.3851H159.833V72.5834H150.238V55.5259H154.35V69.3851ZM172.474 69.5374H166.078L165.011 72.5834H160.595L166.839 55.5259H171.713L177.957 72.5834H173.54L172.474 69.5374ZM171.408 66.3391L169.276 60.0949L167.144 66.3391H171.408ZM194.405 55.5259L188.465 66.9483V72.5834H184.353V66.9483L178.414 55.5259H183.135L186.486 62.684L189.836 55.5259H194.405ZM207.503 72.7357C206.284 72.7357 205.066 72.5834 204.152 72.1265C203.086 71.6696 202.325 71.0604 201.715 70.2989C201.106 69.5374 200.802 68.4713 200.802 67.4052H205.218C205.218 68.0144 205.523 68.4713 205.828 68.9282C206.132 69.2328 206.741 69.3851 207.351 69.3851C207.96 69.3851 208.417 69.2328 208.873 68.9282C209.178 68.6236 209.483 68.1667 209.483 67.7098C209.483 67.2529 209.33 66.9483 209.026 66.6437C208.721 66.3391 208.417 66.1868 207.96 66.0345C207.503 65.8822 206.894 65.5776 206.132 65.4253C205.066 65.1207 204.152 64.8161 203.391 64.3592C202.629 64.0546 202.02 63.4455 201.563 62.8363C201.106 62.2271 200.802 61.3133 200.802 60.2472C200.802 58.7242 201.411 57.3535 202.477 56.592C203.695 55.6782 205.066 55.2213 207.046 55.2213C208.873 55.2213 210.396 55.6782 211.615 56.592C212.833 57.5058 213.442 58.7242 213.442 60.3995H208.873C208.873 59.7903 208.569 59.4857 208.264 59.1811C207.96 58.8765 207.35 58.7242 206.894 58.7242C206.437 58.7242 205.98 58.8765 205.675 59.1811C205.371 59.4857 205.218 59.7903 205.218 60.3995C205.218 61.0087 205.523 61.3133 205.98 61.6179C206.437 61.9225 207.35 62.2271 208.417 62.684C209.483 62.9886 210.396 63.4455 211.158 63.7501C211.919 64.0547 212.529 64.5115 212.986 65.273C213.442 65.8822 213.747 66.796 213.747 67.7098C213.747 68.6236 213.442 69.5374 212.986 70.2989C212.529 71.0604 211.767 71.6696 210.853 72.1265C209.94 72.5834 208.721 72.7357 207.503 72.7357ZM228.52 55.5259V58.8765H223.951V72.5834H219.839V58.8765H215.27V55.5259H228.52ZM238.724 72.7357C237.049 72.7357 235.678 72.4311 234.307 71.6696C232.937 70.9081 231.871 69.842 231.109 68.6236C230.348 67.2529 229.891 65.7299 229.891 64.0547C229.891 62.3794 230.348 60.8564 231.109 59.4857C231.871 58.115 232.937 57.0489 234.307 56.4397C235.678 55.6782 237.201 55.3736 238.724 55.3736C240.247 55.3736 241.77 55.6782 243.141 56.4397C244.511 57.2012 245.578 58.2673 246.339 59.4857C247.101 60.8564 247.557 62.3794 247.557 64.0547C247.557 65.7299 247.101 67.2529 246.339 68.6236C245.578 69.9943 244.511 71.0604 243.141 71.6696C241.77 72.2788 240.399 72.7357 238.724 72.7357ZM238.724 68.9282C240.095 68.9282 241.161 68.4713 241.922 67.5575C242.684 66.6437 243.141 65.4253 243.141 63.9023C243.141 62.3794 242.684 61.161 241.922 60.2472C241.161 59.3334 240.095 58.8765 238.724 58.8765C237.353 58.8765 236.287 59.3334 235.373 60.2472C234.612 61.161 234.155 62.3794 234.155 63.9023C234.155 65.4253 234.612 66.6437 235.373 67.5575C236.287 68.4713 237.353 68.9282 238.724 68.9282ZM258.523 72.5834L255.02 66.1868H253.954V72.5834H249.842V55.5259H256.848C258.218 55.5259 259.284 55.8305 260.351 56.2874C261.264 56.7443 262.026 57.3535 262.483 58.2673C262.94 59.0288 263.244 59.9426 263.244 61.0087C263.244 62.0748 262.94 63.1409 262.33 64.0547C261.721 64.9684 260.807 65.5776 259.437 65.8822L263.396 72.5834H258.523ZM253.954 63.1409H256.543C257.305 63.1409 257.914 62.9886 258.218 62.5317C258.675 62.2271 258.828 61.6179 258.828 61.0087C258.828 60.3995 258.675 59.7903 258.218 59.4857C257.914 59.1811 257.305 58.8765 256.543 58.8765H253.954V63.1409ZM269.945 58.8765V62.3794H275.58V65.5776H269.945V69.3851H276.19V72.5834H265.681V55.5259H276.19V58.8765H269.945Z" fill="white"/>
<path d="M138.816 24.7615C140.187 24.7615 141.405 25.0661 142.471 25.523C143.537 25.9799 144.299 26.7414 144.756 27.8075C145.365 28.7213 145.517 29.9397 145.517 31.158C145.517 32.5287 145.213 33.5948 144.756 34.5086C144.146 35.4224 143.385 36.1839 142.471 36.6408C141.405 37.0977 140.187 37.4023 138.816 37.4023H134.856V24.6092H138.816V24.7615ZM138.816 36.1839C140.491 36.1839 141.71 35.727 142.624 34.8132C143.537 33.8994 143.994 32.681 143.994 31.158C143.994 29.6351 143.537 28.2644 142.624 27.5029C141.71 26.5891 140.491 26.1322 138.816 26.1322H136.532V36.1839H138.816ZM152.218 37.7069C151.305 37.7069 150.391 37.5546 149.629 37.0977C148.868 36.6408 148.259 36.0316 147.802 35.2701C147.345 34.5086 147.192 33.5948 147.192 32.5287C147.192 31.4626 147.345 30.5488 147.802 29.7874C148.259 29.0259 148.868 28.4167 149.629 27.9598C150.391 27.5029 151.305 27.3506 152.218 27.3506C153.132 27.3506 154.046 27.5029 154.807 27.9598C155.569 28.4167 156.178 29.0259 156.635 29.7874C157.092 30.5488 157.244 31.4626 157.244 32.5287C157.244 33.5948 156.94 34.5086 156.483 35.2701C156.026 36.0316 155.417 36.6408 154.655 37.0977C154.046 37.5546 153.132 37.7069 152.218 37.7069ZM152.218 36.1839C152.828 36.1839 153.437 36.0316 153.894 35.727C154.351 35.4224 154.807 34.9655 155.112 34.5086C155.417 33.8994 155.569 33.2902 155.569 32.5287C155.569 31.7672 155.417 31.0057 155.112 30.5488C154.807 30.092 154.351 29.6351 153.894 29.3305C153.437 29.0259 152.828 28.8736 152.218 28.8736C151.609 28.8736 151 29.0259 150.543 29.3305C150.086 29.6351 149.629 29.9397 149.325 30.5488C149.02 31.158 148.868 31.7672 148.868 32.5287C148.868 33.2902 149.02 34.0517 149.325 34.6609C149.629 35.2701 150.086 35.5747 150.543 35.8793C151 36.1839 151.609 36.1839 152.218 36.1839ZM172.779 27.5029L169.733 37.5546H168.057L165.621 29.6351L163.184 37.5546H161.509L158.31 27.5029H159.986L162.27 35.8793L164.707 27.5029H166.382L168.819 35.8793L171.103 27.5029H172.779ZM179.328 27.3506C180.546 27.3506 181.46 27.6552 182.221 28.4167C182.983 29.1782 183.287 30.2443 183.287 31.6149V37.5546H181.612V31.9195C181.612 30.8534 181.307 30.092 180.851 29.6351C180.394 29.0259 179.632 28.8736 178.871 28.8736C177.957 28.8736 177.348 29.1782 176.738 29.6351C176.282 30.2443 175.977 31.0057 175.977 32.0718V37.5546H174.302V27.5029H176.129V28.8736C176.434 28.4167 176.891 27.9598 177.5 27.6552C178.109 27.5029 178.718 27.3506 179.328 27.3506ZM187.856 24V37.5546H186.181V24H187.856ZM195.014 37.7069C194.101 37.7069 193.187 37.5546 192.425 37.0977C191.664 36.6408 191.055 36.0316 190.598 35.2701C190.141 34.5086 189.988 33.5948 189.988 32.5287C189.988 31.4626 190.141 30.5488 190.598 29.7874C191.055 29.0259 191.664 28.4167 192.425 27.9598C193.187 27.5029 194.101 27.3506 195.014 27.3506C195.928 27.3506 196.842 27.5029 197.603 27.9598C198.365 28.4167 198.974 29.0259 199.431 29.7874C199.888 30.5488 200.04 31.4626 200.04 32.5287C200.04 33.5948 199.736 34.5086 199.279 35.2701C198.822 36.0316 198.213 36.6408 197.451 37.0977C196.842 37.5546 195.928 37.7069 195.014 37.7069ZM195.014 36.1839C195.624 36.1839 196.233 36.0316 196.69 35.727C197.146 35.4224 197.603 34.9655 197.908 34.5086C198.213 33.8994 198.365 33.2902 198.365 32.5287C198.365 31.7672 198.213 31.0057 197.908 30.5488C197.603 30.092 197.146 29.6351 196.69 29.3305C196.233 29.0259 195.624 28.8736 195.014 28.8736C194.405 28.8736 193.796 29.0259 193.339 29.3305C192.882 29.6351 192.425 29.9397 192.121 30.5488C191.816 31.158 191.664 31.7672 191.664 32.5287C191.664 33.2902 191.816 34.0517 192.121 34.6609C192.425 35.2701 192.882 35.5747 193.339 35.8793C193.948 36.1839 194.405 36.1839 195.014 36.1839ZM201.715 32.5287C201.715 31.4626 201.868 30.5488 202.325 29.7874C202.782 29.0259 203.238 28.4167 204 27.9598C204.761 27.5029 205.523 27.3506 206.437 27.3506C207.351 27.3506 208.112 27.5029 208.721 27.9598C209.33 28.2644 209.787 28.8736 210.092 29.3305V27.5029H211.767V37.5546H210.092V35.727C209.787 36.3362 209.33 36.7931 208.569 37.25C207.96 37.5546 207.198 37.8592 206.284 37.8592C205.371 37.8592 204.609 37.7069 203.848 37.25C203.086 36.7931 202.629 36.1839 202.172 35.4224C202.02 34.3563 201.715 33.5948 201.715 32.5287ZM210.244 32.5287C210.244 31.7672 210.092 31.158 209.787 30.5488C209.483 29.9397 209.026 29.6351 208.569 29.3305C208.112 29.0259 207.503 28.8736 206.894 28.8736C206.284 28.8736 205.675 29.0259 205.218 29.3305C204.761 29.6351 204.305 30.092 204 30.5488C203.695 31.158 203.543 31.7672 203.543 32.5287C203.543 33.2902 203.695 33.8994 204 34.5086C204.305 35.1178 204.761 35.5747 205.218 35.8793C205.675 36.1839 206.284 36.3362 206.894 36.3362C207.503 36.3362 208.112 36.1839 208.569 35.8793C209.026 35.5747 209.483 35.1178 209.787 34.5086C210.092 33.8994 210.244 33.2902 210.244 32.5287ZM214.052 32.5287C214.052 31.4626 214.204 30.5488 214.661 29.7874C215.118 29.0259 215.575 28.4167 216.336 27.9598C217.098 27.5029 217.859 27.3506 218.773 27.3506C219.534 27.3506 220.296 27.5029 220.905 27.9598C221.514 28.2644 222.124 28.7213 222.428 29.3305V24H224.103V37.5546H222.428V35.727C222.124 36.3362 221.667 36.7931 220.905 37.25C220.296 37.5546 219.534 37.8592 218.621 37.8592C217.707 37.8592 216.945 37.7069 216.184 37.25C215.422 36.7931 214.965 36.1839 214.509 35.4224C214.356 34.3563 214.052 33.5948 214.052 32.5287ZM222.58 32.5287C222.58 31.7672 222.428 31.158 222.124 30.5488C221.819 29.9397 221.362 29.6351 220.905 29.3305C220.448 29.0259 219.839 28.8736 219.23 28.8736C218.621 28.8736 218.011 29.0259 217.555 29.3305C217.098 29.6351 216.641 30.092 216.336 30.5488C216.032 31.158 215.879 31.7672 215.879 32.5287C215.879 33.2902 216.032 33.8994 216.336 34.5086C216.641 35.1178 217.098 35.5747 217.555 35.8793C218.011 36.1839 218.621 36.3362 219.23 36.3362C219.839 36.3362 220.448 36.1839 220.905 35.8793C221.362 35.5747 221.819 35.1178 222.124 34.5086C222.428 33.8994 222.58 33.2902 222.58 32.5287ZM239.181 24.7615V26.1322H233.698V30.3965H238.267V31.7672H233.698V37.5546H232.023V24.7615H239.181ZM245.578 37.7069C244.664 37.7069 243.75 37.5546 242.988 37.0977C242.227 36.6408 241.618 36.0316 241.161 35.2701C240.704 34.5086 240.552 33.5948 240.552 32.5287C240.552 31.4626 240.704 30.5488 241.161 29.7874C241.618 29.0259 242.227 28.4167 242.988 27.9598C243.75 27.5029 244.664 27.3506 245.578 27.3506C246.491 27.3506 247.405 27.5029 248.167 27.9598C248.928 28.4167 249.537 29.0259 249.994 29.7874C250.451 30.5488 250.603 31.4626 250.603 32.5287C250.603 33.5948 250.299 34.5086 249.842 35.2701C249.385 36.0316 248.776 36.6408 248.014 37.0977C247.405 37.5546 246.491 37.7069 245.578 37.7069ZM245.578 36.1839C246.187 36.1839 246.796 36.0316 247.253 35.727C247.71 35.4224 248.167 34.9655 248.471 34.5086C248.776 33.8994 248.928 33.2902 248.928 32.5287C248.928 31.7672 248.776 31.0057 248.471 30.5488C248.167 29.9397 247.71 29.6351 247.253 29.3305C246.796 29.0259 246.187 28.8736 245.578 28.8736C244.968 28.8736 244.359 29.0259 243.902 29.3305C243.445 29.6351 242.988 29.9397 242.684 30.5488C242.379 31.158 242.227 31.7672 242.227 32.5287C242.227 33.2902 242.379 34.0517 242.684 34.6609C242.988 35.2701 243.445 35.5747 243.902 35.8793C244.359 36.1839 244.968 36.1839 245.578 36.1839ZM254.563 29.1782C254.868 28.569 255.325 28.1121 255.782 27.8075C256.391 27.5029 257 27.3506 257.761 27.3506V29.0259H257.305C255.477 29.0259 254.563 30.092 254.563 32.0718V37.5546H252.888V27.5029H254.563V29.1782Z" fill="white"/>
</g>
<defs>
<linearGradient id="paint0_linear_207_15" x1="199.542" y1="122.477" x2="80.0115" y2="-95.6616" gradientUnits="userSpaceOnUse">
<stop offset="0.0543334" stop-color="#1F971D"/>
<stop offset="1" stop-color="#2AE46F"/>
</linearGradient>
<linearGradient id="paint1_linear_207_15" x1="199.542" y1="122.477" x2="80.0115" y2="-95.6616" gradientUnits="userSpaceOnUse">
<stop offset="0.0543334" stop-color="#1F971D"/>
<stop offset="1" stop-color="#2AE46F"/>
</linearGradient>
<linearGradient id="paint2_linear_207_15" x1="51.7385" y1="18" x2="51.7385" y2="78.1058" gradientUnits="userSpaceOnUse">
<stop stop-color="#24BC45"/>
<stop offset="1" stop-color="#1F971D"/>
</linearGradient>
<clipPath id="clip0_207_15">
<rect width="312" height="96" rx="18.2759" fill="white"/>
</clipPath>
</defs>
</svg>
